<?xml version="1.0" encoding="UTF-8" standalone="no"?>
<!-- Created with Inkscape (http://www.inkscape.org/) -->
<svg xmlns:dc="http://purl.org/dc/elements/1.1/" xmlns:cc="http://creativecommons.org/ns#" xmlns:rdf="http://www.w3.org/1999/02/22-rdf-syntax-ns#" xmlns:svg="http://www.w3.org/2000/svg" xmlns="http://www.w3.org/2000/svg" xmlns:xlink="http://www.w3.org/1999/xlink" xmlns:sodipodi="http://sodipodi.sourceforge.net/DTD/sodipodi-0.dtd" xmlns:inkscape="http://www.inkscape.org/namespaces/inkscape" height="145" id="svg1" version="1.0" width="200" x="0.0000000" y="0.0000000" inkscape:version="0.48.1 " sodipodi:docname="AJ_Recycling_Bin_modified2.svg" inkscape:export-filename="C:\Documents and Settings\Joe\Desktop\recycling\recycling_bin_clipart_large.png" inkscape:export-xdpi="299.79309" inkscape:export-ydpi="299.79309">
  <sodipodi:namedview pagecolor="#ffffff" bordercolor="#666666" borderopacity="1" objecttolerance="10" gridtolerance="10" guidetolerance="10" inkscape:pageopacity="0" inkscape:pageshadow="2" inkscape:window-width="1175" inkscape:window-height="933" id="namedview3139" showgrid="false" inkscape:zoom="4.937931" inkscape:cx="100" inkscape:cy="72.5" inkscape:window-x="0" inkscape:window-y="0" inkscape:window-maximized="0" inkscape:current-layer="svg1" inkscape:snap-page="true"/>
  <defs id="defs3">
    <linearGradient id="linearGradient3888">
      <stop id="stop3889" offset="0.0000000" style="stop-color:#2a832d;stop-opacity:0.94845361;"/>
      <stop id="stop3890" offset="1.0000000" style="stop-color:#6bed71;stop-opacity:0.82474226;"/>
    </linearGradient>
    <linearGradient id="linearGradient3864">
      <stop id="stop3865" offset="0.0000000" style="stop-color:#868686;stop-opacity:1.0000000;"/>
      <stop id="stop3866" offset="1.0000000" style="stop-color:#e8e8e8;stop-opacity:1.0000000;"/>
    </linearGradient>
    <linearGradient id="linearGradient3793">
      <stop id="stop3794" offset="0.0000000" style="stop-color:#000409;stop-opacity:1.0000000;"/>
      <stop id="stop3795" offset="1.0000000" style="stop-color:#000409;stop-opacity:0.0000000;"/>
    </linearGradient>
    <linearGradient id="linearGradient3768">
      <stop id="stop3769" offset="0.0000000" style="stop-color:#dddddd;stop-opacity:1.0000000;"/>
      <stop id="stop3770" offset="1.0000000" style="stop-color:#ffffff;stop-opacity:1.0000000;"/>
    </linearGradient>
    <linearGradient id="linearGradient3764">
      <stop id="stop3765" offset="0.0000000" style="stop-color:#ffffff;stop-opacity:1.0000000;"/>
      <stop id="stop3766" offset="1.0000000" style="stop-color:#ffffff;stop-opacity:0.0000000;"/>
    </linearGradient>
    <linearGradient id="linearGradient3758">
      <stop id="stop3759" offset="0.0000000" style="stop-color:#3b7fc5;stop-opacity:1.0000000;"/>
      <stop id="stop3760" offset="1.0000000" style="stop-color:#396da1;stop-opacity:1.0000000;"/>
    </linearGradient>
    <linearGradient id="linearGradient3753">
      <stop id="stop3754" offset="0.0000000" style="stop-color:#000409;stop-opacity:1.0000000;"/>
      <stop id="stop3755" offset="1.0000000" style="stop-color:#000409;stop-opacity:0.0000000;"/>
    </linearGradient>
    <linearGradient gradientTransform="matrix(1.001864,0,0,0.99814,-0.683612,2.4173)" gradientUnits="userSpaceOnUse" id="linearGradient3756" x1="51.893795" x2="34.797581" xlink:href="#linearGradient3753" y1="39.395336" y2="103.56419"/>
    <linearGradient gradientTransform="matrix(1.176705,0,0,0.84983,-0.683612,2.4173)" gradientUnits="userSpaceOnUse" id="linearGradient3763" x1="79.201416" x2="91.426697" xlink:href="#linearGradient3758" y1="54.738117" y2="156.74283"/>
    <linearGradient gradientTransform="matrix(2.156205,0,0,0.463778,2.879134,-3.1813)" gradientUnits="userSpaceOnUse" id="linearGradient3767" spreadMethod="reflect" x1="43.776001" x2="37.945" xlink:href="#linearGradient3764" y1="47.678745" y2="74.252792"/>
    <linearGradient gradientTransform="matrix(1.010798,0,0.131934,0.989317,-9.095966,-3.1813)" gradientUnits="userSpaceOnUse" id="linearGradient3779" x1="36.659988" x2="34.21386" xlink:href="#linearGradient3768" y1="54.479355" y2="81.603989"/>
    <linearGradient gradientTransform="matrix(0.852803,0,0,1.172604,2.879134,-3.1813)" gradientUnits="userSpaceOnUse" id="linearGradient3784" spreadMethod="reflect" x1="163.93758" x2="174.67641" xlink:href="#linearGradient3764" y1="66.834419" y2="101.4129"/>
    <linearGradient gradientTransform="matrix(1.302365,0,0,0.767834,2.879134,-3.1813)" gradientUnits="userSpaceOnUse" id="linearGradient3790" x1="115.59602" x2="127.98763" xlink:href="#linearGradient3753" y1="60.110321" y2="79.867683"/>
    <linearGradient gradientTransform="matrix(2.190067,0,0,0.456607,2.879134,-3.1813)" gradientUnits="userSpaceOnUse" id="linearGradient3796" x1="19.054567" x2="60.603821" xlink:href="#linearGradient3793" y1="110.85932" y2="-14.247867"/>
    <linearGradient gradientTransform="matrix(0.38725407,0,0,5.2536987,-96.443031,-8.3896429)" gradientUnits="userSpaceOnUse" id="linearGradient3801" spreadMethod="reflect" x1="542.22687" x2="549.9267" xlink:href="#linearGradient3764" y1="21.063189" y2="21.063189"/>
    <radialGradient cx="56.758472" cy="178.72423" fx="56.758472" fy="178.72423" gradientTransform="matrix(1.6378178,0,0,0.50599286,-4.426668,20.39642)" gradientUnits="userSpaceOnUse" id="radialGradient3806" r="54.055691" xlink:href="#linearGradient3753"/>
    <radialGradient cx="56.758472" cy="178.72423" fx="56.758472" fy="178.72423" gradientTransform="matrix(0.9759093,-0.01064101,-0.01602563,0.17286321,58.3197,101.7722)" gradientUnits="userSpaceOnUse" id="radialGradient3808" r="54.055691" xlink:href="#linearGradient3753"/>
    <linearGradient gradientTransform="matrix(0.823217,0,0,1.214747,16.418506,25.524462)" gradientUnits="userSpaceOnUse" id="linearGradient3875" spreadMethod="reflect" x1="89.196388" x2="106.56554" xlink:href="#linearGradient3864" y1="29.040941" y2="23.231722"/>
    <radialGradient cx="60.952446" cy="7.3031745" fx="60.952446" fy="7.3031745" gradientTransform="matrix(1.092396,0,0,0.915419,16.418506,25.524462)" gradientUnits="userSpaceOnUse" id="radialGradient3878" r="1.5434121" spreadMethod="reflect" xlink:href="#linearGradient3793"/>
    <linearGradient gradientTransform="matrix(1.357933,0,0,0.736413,0,22.5)" gradientUnits="userSpaceOnUse" id="linearGradient3886" spreadMethod="reflect" x1="98.577805" x2="86.998856" xlink:href="#linearGradient3768" y1="51.009369" y2="56.070068"/>
    <radialGradient cx="80.399055" cy="1.9145001" fx="80.399055" fy="1.9145001" gradientTransform="matrix(0.709033,0,0,1.410371,3.9106145,23.111034)" gradientUnits="userSpaceOnUse" id="radialGradient3910" r="9.7997169" xlink:href="#linearGradient3793"/>
    <radialGradient cx="59.478207" cy="17.471869" fx="59.478207" fy="17.471869" gradientTransform="matrix(0.560913,0.430133,-0.610509,0.871305,28.180705,-1.0469065)" gradientUnits="userSpaceOnUse" id="radialGradient3913" r="19.739889" xlink:href="#linearGradient3764"/>
    <linearGradient gradientTransform="matrix(0.641801,0.0694928,-0.166754,1.540059,-2.0329695,17.637154)" gradientUnits="userSpaceOnUse" id="linearGradient3914" spreadMethod="reflect" x1="103.45367" x2="83.031464" xlink:href="#linearGradient3888" y1="24.839106" y2="19.990744"/>
    <linearGradient gradientTransform="matrix(1.089182,0.225749,-0.104129,0.892963,-2.290338,-0.210819)" gradientUnits="userSpaceOnUse" id="linearGradient2402" x1="95.439049" x2="99.515228" xlink:href="#linearGradient3768" y1="48.820446" y2="3.6300881"/>
    <radialGradient cx="106.92339" cy="58.526436" fx="106.92339" fy="58.526436" gradientTransform="scale(0.994856,1.00517)" gradientUnits="userSpaceOnUse" id="radialGradient3029" r="12.337215" xlink:href="#linearGradient3793"/>
    <linearGradient gradientTransform="scale(1.18015,0.84735)" gradientUnits="userSpaceOnUse" id="linearGradient3033" x1="90.015602" x2="87.464302" xlink:href="#linearGradient3864" y1="75.272751" y2="42.978302"/>
    <linearGradient gradientTransform="matrix(1.109941,0.07013468,0.02042775,0.865015,-0.786894,17.12097)" gradientUnits="userSpaceOnUse" id="linearGradient3035" x1="95.439049" x2="99.515228" xlink:href="#linearGradient3768" y1="48.820446" y2="3.6300881"/>
    <linearGradient gradientTransform="matrix(1.168798,-0.157157,0.117244,0.807671,1.510584,17.01692)" gradientUnits="userSpaceOnUse" id="linearGradient3036" x1="90.015602" x2="87.464302" xlink:href="#linearGradient3864" y1="75.272751" y2="42.978302"/>
    <radialGradient cx="106.92339" cy="58.526436" fx="106.92339" fy="58.526436" gradientTransform="scale(0.994856,1.00517)" gradientUnits="userSpaceOnUse" id="radialGradient3038" r="12.337215" xlink:href="#linearGradient3793"/>
    <linearGradient gradientTransform="scale(1.515168,0.659993)" gradientUnits="userSpaceOnUse" id="linearGradient3042" spreadMethod="reflect" x1="84.461273" x2="83.232246" xlink:href="#linearGradient3864" y1="106.35049" y2="80.095093"/>
  </defs>
  <path d="m 177.06673,110.82957 c 0,15.10598 -39.63773,27.35178 -88.533367,27.35178 -48.895629,0 -88.5333685225,-12.2458 -88.5333685225,-27.35178 0,-15.105972 39.6377395225,-27.351783 88.5333685225,-27.351783 48.895637,0 88.533367,12.245811 88.533367,27.351783 z" id="path3802" style="fill:url(#radialGradient3806);fill-opacity:1;stroke:none" inkscape:connector-curvature="0"/>
  <path d="m 163.6001,131.48786 c -0.47843,5.16068 -24.4848,9.60176 -53.61972,9.91944 -29.134931,0.31768 -52.36561,-3.60835 -51.887178,-8.76903 0.478431,-5.16068 24.4848,-9.60176 53.619728,-9.91944 29.13493,-0.31768 52.3656,3.60835 51.88717,8.76903 z" id="path3807" style="opacity:0.27488152;fill:url(#radialGradient3808);fill-opacity:1;stroke:none" inkscape:connector-curvature="0"/>
  <path d="m 13.612192,39.008022 6.57171,64.803238 c 0.08483,1.44207 0.678618,4.15654 2.544819,4.83516 l 83.799729,30.65785 c 2.88413,1.44207 7.7593,0.84828 10.13447,-0.25448 l 56.71906,-31.93026 c 2.54482,-1.10276 4.3262,-2.96896 4.58068,-5.5986 l 7.33515,-61.075654 c 0.42414,-3.802289 3.90207,-2.260457 4.3262,-5.553782 l 0.89069,-8.016179 c 0.16965,-1.060341 -0.9331,-2.247924 -2.41758,-2.67206 L 80.136027,9.742607 c -2.163095,-0.593791 -5.044816,-0.551378 -7.08067,-10e-7 L 11.44188,23.319783 c -1.6117185,0.508964 -2.714473,2.035855 -2.5448185,3.053783 l 2e-7,7.634456 c 0.3841282,2.699534 3.5675553,1.028057 4.7151303,5 z" id="path3748" style="fill:url(#linearGradient3763);fill-opacity:1;fill-rule:evenodd;stroke:#00287b;stroke-width:0.3125;stroke-linecap:butt;stroke-linejoin:miter;stroke-miterlimit:4;stroke-opacity:1" inkscape:connector-curvature="0"/>
  <path d="M 20.15278,23.893451 113.7427,43.898315 181.0617,25.735416 77.053,11.339747 20.15278,23.893451 z" id="path3750" style="opacity:0.59715642;fill:url(#linearGradient3796);fill-opacity:1;fill-rule:evenodd;stroke:url(#linearGradient3767);stroke-width:1.25;stroke-linecap:butt;stroke-linejoin:round;stroke-miterlimit:4;stroke-opacity:0.5944443" inkscape:connector-curvature="0"/>
  <path d="M 13.562985,36.953806 108.84696,60.372345 110.10129,136.45857 19.110433,84.39777 13.562985,36.953806 z" id="path3752" style="opacity:0.35071088;fill:url(#linearGradient3756);fill-opacity:1;fill-rule:evenodd;stroke:none" inkscape:connector-curvature="0"/>
  <path d="m 32.309679,56.099951 c -0.303481,0.04672 -0.601135,0.179308 -0.879155,0.4375 l -3.120681,6.125 7.110619,8.093749 3.097753,-6.531249 c -1.430602,-3.97521 -4.084164,-8.452057 -6.208536,-8.125 z m 1.931255,0.1875 c 1.888205,1.467716 3.156545,3.791409 4.289749,6.625 l 3.052274,7.656249 -1.870809,0.96875 7.164655,2.875 3.249824,-7.031249 -2.154148,0.718749 -1.79178,-4.531249 c -0.575251,-1.683318 -2.067585,-3.575585 -3.314683,-4 l -8.625082,-3.28125 z m -10.785184,9.34375 2.247993,3.031249 -1.666558,4.375 c -0.83661,1.97784 1.00536,4.93226 2.133487,6.15625 1.110576,1.20495 2.769412,1.95666 4.306313,2.53125 l 2.387374,-5.0625 2.187559,2.34375 -4.221097,-10.5625 -7.375071,-2.812499 z m 28.00027,10.781249 -6.32701,2.9375 3.766903,9.5 c 3.207927,1.51267 7.071253,1.45565 6.070753,-3.21875 L 51.45602,76.41245 z M 24.5248,77.6312 29.700125,90.66245 c 1.00087,1.92018 2.749716,2.95919 4.510507,3.59375 l 4.718796,1.875 -0.644016,-10.6875 -9.014674,-3.625 C 27.882799,81.38583 26.051966,80.28548 24.5248,77.6312 z m 19.416838,6.875 -2.970652,7.25 4.069003,10.125 -0.118837,-3.46875 3.202115,1.28125 c 1.183892,0.60151 2.650137,0.11014 3.11872,-1.21875 l 3.472695,-8.875 c -1.246265,1.33838 -2.967072,1.13481 -4.985408,0.34375 l -5.439636,-2.125 -0.348,-3.3125 z" id="path2742" style="fill:url(#linearGradient3779);fill-opacity:1;fill-rule:evenodd;stroke:none" inkscape:connector-curvature="0"/>
  <path d="m 68.640494,74.5047 0.267509,-2.85846 c 0.04833,-0.49204 -0.327702,-1.01742 -0.476442,-1.1217 -0.248092,-0.15688 -0.438961,-0.005 -0.395236,0.55441 l 0.252233,3.29955 0.351936,0.1262 m 1.898337,0.68075 0.267505,-2.85846 c 0.04833,-0.49205 -0.327703,-1.01742 -0.476443,-1.1217 -0.248091,-0.15689 -0.43896,-0.005 -0.395235,0.55442 l 0.252233,3.29953 0.35194,0.12621 m 5.468545,1.79125 2.047325,8.74838 0.213292,0.0765 1.407223,-9.98855 c 0.03483,-0.2422 0.161181,-0.68929 0.6091,-0.52866 l -0.06059,-0.32735 -1.919661,-0.6884 0.06059,0.32735 c 0.170634,0.0612 1.006982,0.27621 0.867674,1.24501 l -1.008909,6.92231 -1.776871,-7.71754 c -0.296242,-1.27781 0.254394,-1.04639 0.585005,-0.92784 l -0.06059,-0.32735 -2.474235,-0.88726 0.06059,0.32735 c 0.202624,0.0727 0.660085,0.33859 0.860942,1.20864 l 0.319805,1.40511 -0.760108,5.73807 -1.762846,-7.69553 c -0.296237,-1.2778 0.254399,-1.04638 0.585005,-0.92782 l -0.06059,-0.32736 -2.474232,-0.88726 0.06059,0.32735 c 0.202624,0.0727 0.64942,0.33475 0.860942,1.20864 l 2.679097,11.3011 0.223957,0.0803 0.917494,-7.68519 m 9.181511,9.74463 c -0.145407,0.23651 -0.39633,0.3333 -0.625359,0.387 -0.229026,0.0537 -0.701646,-0.13276 -1.134364,-0.69543 -0.369304,-0.489 -0.653779,-1.54187 -0.692965,-2.50674 0.514177,-0.0194 1.117046,0.0101 1.662683,-0.2697 0.445153,-0.2309 0.725306,-0.70773 0.767508,-1.60948 0.04333,-1.0032 -0.564491,-1.86639 -1.225709,-2.1035 -1.151791,-0.41304 -2.353235,1.3804 -2.090833,4.08931 0.134566,1.37263 0.71316,2.61586 1.203704,3.11437 0.674082,0.68319 1.113603,0.63706 1.338699,0.6159 0.589399,-0.0433 1.125015,-1.02282 1.172738,-1.14154 0.05503,-0.13308 -0.05608,-0.41064 -0.139737,-0.27085 l -0.236365,0.39066 m -2.434125,-3.19904 c -0.01729,-1.00798 0.01084,-1.60915 0.331462,-2.51293 0.129144,-0.37817 0.360442,-0.63481 0.557473,-0.69998 0.290219,-0.0997 0.587132,0.1596 0.724571,0.95598 0.177828,1.0146 -0.09063,2.36157 -1.613506,2.25693 m -18.501273,8.22224 0.724071,0.36153 2.362486,6.4164 1.557062,0.55836 -0.06059,-0.32734 c -0.170641,-0.0612 -0.680285,-0.44772 -0.836289,-0.86022 L 65.90653,92.33732 c 0.831887,-0.0243 1.587457,-0.24575 1.609497,-1.57919 0.03614,-1.95664 -1.117756,-3.77971 -2.685473,-4.3419 l -2.623542,-0.94081 0.06059,0.32735 c 0.309279,0.11091 0.823423,0.41414 0.839048,1.25173 l 0.214038,8.6343 c 0.03355,1.14964 -0.264494,0.99183 -0.584435,0.87711 l 0.06059,0.32734 2.452901,0.87961 -0.06059,-0.32734 C 64.879877,97.33461 64.36573,97.03137 64.350107,96.19379 l -0.09662,-4.44926 m -0.110083,-4.522 c -0.0039,-0.29005 0.04663,-0.33984 0.211665,-0.41649 0.391803,0.0726 0.954237,0.20635 1.361126,0.84467 0.448987,0.70434 0.630216,1.41454 0.666039,2.36125 0.06771,1.92594 -0.731062,1.86024 -2.140473,1.18503 l -0.09836,-3.97446 m 8.695448,12.04931 c -0.145412,0.2365 -0.396335,0.3333 -0.625365,0.38698 -0.229021,0.0537 -0.70164,-0.13274 -1.134364,-0.69542 -0.369298,-0.48899 -0.65378,-1.54186 -0.692964,-2.50674 0.514182,-0.0194 1.11704,0.0101 1.662683,-0.2697 0.445157,-0.23089 0.72531,-0.70773 0.767512,-1.60947 0.04333,-1.00321 -0.56449,-1.8664 -1.225708,-2.10351 -1.15179,-0.41304 -2.353237,1.38041 -2.090834,4.0893 0.134567,1.37265 0.713161,2.61587 1.203707,3.1144 0.674081,0.68319 1.113602,0.63705 1.338697,0.61588 0.5894,-0.0433 1.125014,-1.02282 1.172738,-1.14154 0.05503,-0.13308 -0.05609,-0.41064 -0.139738,-0.27084 l -0.236364,0.39066 m -2.434126,-3.19905 c -0.01729,-1.00798 0.01084,-1.60915 0.331463,-2.51291 0.129144,-0.37818 0.360437,-0.63482 0.557472,-0.7 0.290219,-0.0997 0.587133,0.15961 0.724572,0.95598 0.177823,1.0146 -0.09064,2.36157 -1.613507,2.25693 m 7.025489,5.01531 c -0.18247,0.35905 -1.056524,0.96249 -1.827047,-0.67216 -0.230089,-0.49001 -0.650978,-1.47293 -0.655301,-3.00261 -0.02058,-1.67135 0.172053,-2.62103 0.732291,-2.9295 0.334011,-0.18585 0.625899,-0.11514 0.824028,0.0408 0.106082,0.089 0.332273,0.28895 0.278911,0.59242 -0.03819,0.22401 -0.02253,0.739 0.137972,1.06823 0.160506,0.32922 0.340671,0.49571 0.469216,0.49086 0.19983,0.004 0.274522,-0.29207 0.26949,-0.48065 -0.01343,-0.39534 -0.285044,-1.00211 -0.537597,-1.39831 -0.26322,-0.40002 -0.401863,-0.44974 -0.739205,-0.60467 -1.370694,-0.62737 -2.405354,0.61463 -2.227172,3.51407 0.127195,2.03217 0.8444,3.64772 2.091048,4.19665 0.216658,0.0947 0.543903,0.19504 0.960999,-0.0799 0.266089,-0.17624 0.592833,-0.67033 0.636096,-1.02835 -0.0017,-0.17039 -0.08135,-0.38575 -0.161636,-0.22776 l -0.252093,0.52084 m 2.635983,4.32415 c -0.296345,-0.31002 -0.644353,-0.46877 -0.68818,-0.06 -0.01966,0.16273 0.0084,0.52935 0.200858,0.87003 0.178472,0.31871 0.579227,0.54731 0.826791,0.43234 0.319408,-0.15713 0.637194,-0.80723 0.714115,-0.9834 0.454226,-1.04265 0.842872,-2.92382 1.178262,-5.46928 0.07023,-0.53513 0.141655,-1.81693 0.106335,-2.16917 -0.05102,-0.54465 -0.218754,-1.50471 -0.696401,-1.87975 -0.449585,-0.33101 -0.510812,0.0375 -0.510284,0.30941 0.0033,0.34078 0.390595,0.81924 0.654383,1.16853 0.186333,0.2536 0.200323,0.59819 0.233416,0.83079 0.134567,1.37264 -0.348397,3.38977 -0.451712,3.69231 -0.627873,-2.26267 -1.213695,-4.13673 -2.111557,-6.51319 -0.09708,-0.25554 -0.103245,-0.34265 -0.356401,-0.36551 l -1.277017,-0.0674 0.06115,0.27663 c 0.277856,0.0487 0.676985,-0.21567 1.297636,1.41617 0.561723,1.47487 1.49998,4.06959 2.092989,6.89705 -0.152777,0.89605 -0.414433,1.63421 -0.805173,2.10534 L 80.0662,105.41225 m 6.820692,-0.93296 c -0.182472,0.35904 -1.056525,0.96249 -1.82704,-0.67215 -0.230094,-0.49003 -0.65098,-1.47294 -0.655301,-3.00261 -0.02059,-1.67135 0.172051,-2.62103 0.73229,-2.9295 0.334012,-0.18585 0.625891,-0.11515 0.824027,0.0408 0.106076,0.089 0.332274,0.28896 0.278913,0.59243 -0.0382,0.22401 -0.02253,0.739 0.13797,1.06823 0.160501,0.32922 0.340673,0.49571 0.469216,0.49086 0.199829,0.004 0.274517,-0.29208 0.269491,-0.48066 -0.01343,-0.39533 -0.285046,-1.00211 -0.537603,-1.39831 -0.263215,-0.40001 -0.401857,-0.44973 -0.739199,-0.60467 -1.370694,-0.62737 -2.405354,0.61464 -2.227172,3.51407 0.127195,2.03218 0.844396,3.64773 2.091048,4.19666 0.216656,0.0947 0.543901,0.19503 0.961,-0.0799 0.266086,-0.17626 0.592833,-0.67033 0.636094,-1.02836 -0.0017,-0.1704 -0.08135,-0.38575 -0.161637,-0.22776 l -0.252097,0.52084 m 2.419644,-8.89537 c -0.01119,-0.27569 -0.02239,-0.55137 -0.09757,-0.85001 l -1.462248,-0.0999 0.06059,0.32735 c 0.565239,0.2027 0.707812,0.21987 0.733537,1.11202 l 0.261727,8.83817 c 0.04195,1.3564 0.625111,1.87115 0.954625,1.7686 0.47265,-0.13615 0.615296,-0.76416 0.756811,-1.2907 0.08928,-0.32455 0.02477,-0.61936 -0.102117,-0.44412 -0.101616,0.15033 -0.153341,0.94679 -0.428967,1.01773 -0.447387,0.11124 -0.393954,-0.83742 -0.41355,-1.31986 l -0.26283,-9.0593 m 5.403495,11.53099 c -0.145413,0.2365 -0.396335,0.3333 -0.625366,0.38699 -0.229026,0.0537 -0.701639,-0.13275 -1.134363,-0.69543 -0.369298,-0.48899 -0.653779,-1.54185 -0.692963,-2.50673 0.514169,-0.0194 1.117039,0.01 1.662682,-0.26971 0.445154,-0.2309 0.725307,-0.70774 0.767512,-1.60946 0.04333,-1.00322 -0.564497,-1.8664 -1.225709,-2.10352 -1.1518,-0.41304 -2.353236,1.38041 -2.090836,4.0893 0.134569,1.37265 0.71316,2.61586 1.203707,3.11439 0.674075,0.6832 1.113605,0.63706 1.3387,0.6159 0.589394,-0.0433 1.125013,-1.02283 1.172735,-1.14156 0.05503,-0.13308 -0.05609,-0.41062 -0.13974,-0.27083 l -0.236359,0.39066 m -2.434125,-3.19903 c -0.01729,-1.00799 0.01084,-1.60917 0.331462,-2.51293 0.129142,-0.37818 0.360437,-0.63482 0.55747,-0.7 0.290221,-0.0997 0.587134,0.15961 0.724572,0.95598 0.177824,1.01461 -0.09064,2.36158 -1.613504,2.25695 m 4.807413,2.28425 c 0.07604,-2.33285 0.174932,-3.19729 0.285153,-5.07641 0.109091,-1.77766 -0.03284,-2.49076 -0.17145,-2.86306 -0.159366,-0.43071 -0.343468,-0.56464 -0.461351,-0.55597 -0.225087,0.0212 -0.270583,0.25953 -0.297557,0.43663 -0.04212,0.25657 -0.01137,1.33729 0.06654,2.35002 l 0.40523,5.57868 0.173435,0.13011 m -0.470063,2.14061 c 0.09425,0.50922 0.402933,0.99347 0.701539,1.10055 0.298612,0.10707 0.459189,-0.20887 0.36494,-0.7181 -0.09425,-0.50921 -0.402925,-0.99346 -0.701537,-1.10053 -0.298608,-0.10709 -0.459191,0.20886 -0.364942,0.71808 m 3.211252,-5.6741 0.267514,-2.85845 c 0.0483,-0.49205 -0.327713,-1.01742 -0.476457,-1.1217 -0.248089,-0.15688 -0.438956,-0.005 -0.395227,0.55442 l 0.252233,3.29953 0.351937,0.1262 m 1.898334,0.68075 0.2675,-2.85846 c 0.0483,-0.49205 -0.3277,-1.01741 -0.47644,-1.12169 -0.24808,-0.15688 -0.43895,-0.005 -0.39523,0.55442 l 0.25223,3.29953 0.35194,0.1262" id="text2783" style="font-size:18px;font-style:normal;font-variant:normal;font-weight:normal;font-stretch:normal;writing-mode:lr-tb;text-anchor:middle;fill:#ffffff;fill-opacity:1;stroke:#ffffff;stroke-width:0.75451201;stroke-linecap:butt;stroke-linejoin:miter;stroke-miterlimit:4;stroke-opacity:1;font-family:TempoFontItalic" inkscape:connector-curvature="0"/>
  <path d="m 117.80808,63.323821 66.09658,-21.953395 -4.38044,35.105334 c -5.7333,37.1826 -56.50989,6.67303 -64.27904,58.87007 l 2.5629,-72.022009 z" id="path3780" style="opacity:0.2606635;fill:url(#linearGradient3784);fill-opacity:1;fill-rule:evenodd;stroke:none" inkscape:connector-curvature="0"/>
  <rect height="74.679153" id="rect3797" rx="2.5192337" ry="1.4394124" style="opacity:0.34597156;fill:url(#linearGradient3801);fill-opacity:1;stroke:none" transform="matrix(0.99999782,0.00208817,-0.00763299,0.99997087,0,0)" width="5.5046563" x="111.01371" y="62.188671"/>
  <path d="m 185.70413,38.491292 -66.91804,22.036974 c -3.30826,1.017928 -7.24898,1.101506 -10.00087,-0.149071 l 0.25938,22.327665 c 1.65413,-0.25448 3.62075,-0.0836 6.49988,-0.80336 2.87914,-0.71979 66.57997,-23.033074 66.57997,-23.033074 l 3.57968,-20.379134 z" id="path3786" style="opacity:0.4075829;fill:url(#linearGradient3790);fill-opacity:1;fill-rule:evenodd;stroke:none" inkscape:connector-curvature="0"/>
  <path d="m 12.952999,24.711062 7.125493,-1.377819 94.009218,21.183743 67.94666,-19.191551 5.85309,0.403555 -73.79975,22.350742 -101.134711,-23.36867 z" id="path3791" style="opacity:0.20379148;fill:#ffffff;fill-opacity:1;fill-rule:evenodd;stroke:none" inkscape:connector-curvature="0"/>
  <rect height="10.43686" id="rect3809" rx="2.3868022" ry="2.0711098" style="opacity:0.3;fill:#000409;fill-opacity:0.46666667;stroke:none" transform="matrix(0.9713293,0.23773807,0,1,0,0)" width="105.96716" x="10.374407" y="22.349014"/>
  <metadata>
    <rdf:RDF>
      <cc:Work>
        <dc:format>image/svg+xml</dc:format>
        <dc:type rdf:resource="http://purl.org/dc/dcmitype/StillImage"/>
        <cc:license rdf:resource="http://creativecommons.org/licenses/publicdomain/"/>
        <dc:publisher>
          <cc:Agent rdf:about="http://openclipart.org/">
            <dc:title>Open Clip Art Library</dc:title>
          </cc:Agent>
        </dc:publisher>
        <dc:title>Empty recycling box - with words</dc:title>
        <dc:date>2011-06-25T05:46:31</dc:date>
        <dc:description>An empty blue recycling bin (blue box) drawn in 3-D perspective, with a recycling symbol and the words "We Recycle" on the side.</dc:description>
        <dc:source>http://openclipart.org/detail/147073/empty-recycling-box---with-words-by-joev</dc:source>
        <dc:creator>
          <cc:Agent>
            <dc:title>joev</dc:title>
          </cc:Agent>
        </dc:creator>
        <dc:subject>
          <rdf:Bag>
            <rdf:li>3-D</rdf:li>
            <rdf:li>bin</rdf:li>
            <rdf:li>blue</rdf:li>
            <rdf:li>blue bin</rdf:li>
            <rdf:li>blue box</rdf:li>
            <rdf:li>box</rdf:li>
            <rdf:li>clip art</rdf:li>
            <rdf:li>clipart</rdf:li>
            <rdf:li>free</rdf:li>
            <rdf:li>garbage</rdf:li>
            <rdf:li>image</rdf:li>
            <rdf:li>media</rdf:li>
            <rdf:li>recycle</rdf:li>
            <rdf:li>recycling</rdf:li>
            <rdf:li>recycling bin</rdf:li>
            <rdf:li>recycling box</rdf:li>
            <rdf:li>rubbish</rdf:li>
            <rdf:li>svg</rdf:li>
            <rdf:li>trash</rdf:li>
            <rdf:li>we recycle</rdf:li>
          </rdf:Bag>
        </dc:subject>
      </cc:Work>
      <cc:License rdf:about="http://creativecommons.org/licenses/publicdomain/">
        <cc:permits rdf:resource="http://creativecommons.org/ns#Reproduction"/>
        <cc:permits rdf:resource="http://creativecommons.org/ns#Distribution"/>
        <cc:permits rdf:resource="http://creativecommons.org/ns#DerivativeWorks"/>
      </cc:License>
    </rdf:RDF>
  </metadata>
</svg>