<svg id="Layer_1" data-name="Layer 1" xmlns="http://www.w3.org/2000/svg" xmlns:xlink="http://www.w3.org/1999/xlink" viewBox="0 0 334.87 328.57"><defs><style>.cls-1{fill:none;}.cls-2{clip-path:url(#clip-path);}.cls-3{opacity:0.5;fill:url(#linear-gradient);}.cls-4{fill:url(#linear-gradient-2);}.cls-5{fill:gray;}.cls-6{fill:url(#linear-gradient-3);}.cls-7{fill:url(#linear-gradient-4);}.cls-8{fill:url(#linear-gradient-5);}.cls-9{fill:url(#linear-gradient-6);}.cls-10{fill:url(#linear-gradient-7);}.cls-11{fill:url(#linear-gradient-8);}.cls-12{font-size:91.52px;fill:#ededed;font-family:Tahoma;}</style><clipPath id="clip-path" transform="translate(-9.06 -12)"><circle class="cls-1" cx="177.44" cy="175" r="163"/></clipPath><linearGradient id="linear-gradient" x1="168.38" x2="168.38" y2="326" gradientUnits="userSpaceOnUse"><stop offset="0" stop-opacity="0"/><stop offset="0.54" stop-opacity="0.5"/><stop offset="1" stop-color="#707070"/></linearGradient><linearGradient id="linear-gradient-2" x1="139.99" y1="270.5" x2="139.99" y2="127.4" gradientUnits="userSpaceOnUse"><stop offset="0" stop-color="#bfbfbf"/><stop offset="0.79" stop-color="#e6e6e6"/><stop offset="0.8" stop-color="#bfbfbf"/></linearGradient><linearGradient id="linear-gradient-3" x1="215.61" y1="270.5" x2="215.61" y2="127.4" xlink:href="#linear-gradient-2"/><linearGradient id="linear-gradient-4" x1="177.83" y1="270.15" x2="177.83" y2="37.74" xlink:href="#linear-gradient-2"/><linearGradient id="linear-gradient-5" x1="14.94" y1="263.04" x2="177.94" y2="263.04" gradientUnits="userSpaceOnUse"><stop offset="0.12" stop-color="#fff"/><stop offset="0.56" stop-color="#fff"/><stop offset="0.75" stop-color="#fff"/></linearGradient><linearGradient id="linear-gradient-6" x1="11.95" y1="264.25" x2="180.94" y2="264.25" gradientUnits="userSpaceOnUse"><stop offset="0" stop-color="#fff" stop-opacity="0"/><stop offset="0.35" stop-color="#fff" stop-opacity="0.2"/><stop offset="0.76" stop-color="#fff" stop-opacity="0.7"/><stop offset="0.91" stop-color="#fff"/></linearGradient><linearGradient id="linear-gradient-7" x1="9.06" y1="263.04" x2="172.06" y2="263.04" gradientTransform="matrix(-1, 0, 0, 1, 350, 0)" xlink:href="#linear-gradient-5"/><linearGradient id="linear-gradient-8" x1="343.93" y1="264.25" x2="174.94" y2="264.25" xlink:href="#linear-gradient-6"/></defs><title>EL_filter</title><g class="cls-2"><circle class="cls-3" cx="168.38" cy="163" r="163"/></g><path class="cls-4" d="M153.05,126.25a4.17,4.17,0,0,0-7.83-2.13L126.94,156l.12,115.53h25.65Z" transform="translate(-9.06 -12)"/><path class="cls-5" d="M143.27,294v-9h1.5l8-14h-25l8,14h1.5v9a5.17,5.17,0,0,1,6,0Z" transform="translate(-9.06 -12)"/><path class="cls-5" d="M130.27,316c0-11.6,4.48-21,10-21s10,9.4,10,21Z" transform="translate(-9.06 -12)"/><path class="cls-6" d="M228.12,156l-17.67-31.84a4.17,4.17,0,0,0-7.83,2.13L203,271.49H228.6Z" transform="translate(-9.06 -12)"/><path class="cls-5" d="M218.27,294v-9h1.5l8-14h-25l8,14h1.5v9a5.17,5.17,0,0,1,6,0Z" transform="translate(-9.06 -12)"/><path class="cls-5" d="M205.27,316c0-11.6,4.48-21,10-21s10,9.4,10,21Z" transform="translate(-9.06 -12)"/><path class="cls-7" d="M185.42,40.34a8,8,0,0,0-15.17,0L154.73,86.63V271.49h46.21V86.63Z" transform="translate(-9.06 -12)"/><path class="cls-5" d="M190.82,292a6.5,6.5,0,0,1,4.84,2.63L200.94,271H154.32l5.37,24c1.5-1.9,3.25-3,5.13-3,3.7,0,6.93,4.23,8.66,10.5l2.4,1.08a4.63,4.63,0,0,0,4.06-.14l2.31-1.22C184,296.11,187.18,292,190.82,292Z" transform="translate(-9.06 -12)"/><path class="cls-5" d="M154.82,316c0-11.6,4.48-21,10-21s10,9.4,10,21Z" transform="translate(-9.06 -12)"/><path class="cls-5" d="M180.82,316c0-11.6,4.48-21,10-21s10,9.4,10,21Z" transform="translate(-9.06 -12)"/><path class="cls-8" d="M177.94,337.5s-73.69,4.57-127-60c-32-37-36-89-36-89s25,128.42,137.79,128.42c9,0,25.21.58,25.21.58Z" transform="translate(-9.06 -12)"/><path class="cls-9" d="M14.94,188.5s25,128.42,137.79,128.42c9,0,25.21.58,25.21.58v20s-1.13.07-3.22.07c-14.75,0-77.08-3.51-123.78-60.07-32-37-36-89-36-89m3-.57-5.94.8a174.16,174.16,0,0,0,6.11,31.21c4.64,16.37,13.71,40,30.59,59.5a165.7,165.7,0,0,0,75.19,52.14,163,163,0,0,0,50.88,9c2.15,0,3.36-.07,3.41-.08l2.81-.17V314.6l-2.89-.1c-.16,0-16.34-.58-25.32-.58-45.62,0-82.15-21.08-108.56-62.66a207.46,207.46,0,0,1-26.28-63.33Z" transform="translate(-9.06 -12)"/><path class="cls-10" d="M177.94,337.5s73.69,4.57,127-60c32-37,36-89,36-89s-25,128.42-137.78,128.42c-9,0-25.22.58-25.22.58Z" transform="translate(-9.06 -12)"/><path class="cls-11" d="M340.94,188.5s-4,52-36,89c-46.7,56.56-109,60.07-123.77,60.07-2.09,0-3.23-.07-3.23-.07v-20s16.19-.58,25.22-.58c112.78,0,137.78-128.42,137.78-128.42m-2.94-.57a207.94,207.94,0,0,1-26.29,63.33c-26.41,41.58-62.93,62.66-108.55,62.66-9,0-25.16.58-25.33.58l-2.89.1v25.72l2.82.17c.05,0,1.25.08,3.41.08a162.94,162.94,0,0,0,50.87-9,165.7,165.7,0,0,0,75.19-52.14c16.88-19.53,25.95-43.13,30.6-59.5a174.61,174.61,0,0,0,6.1-31.21l-5.92-.8Z" transform="translate(-9.06 -12)"/><text class="cls-12" transform="translate(0 93.68)">EL</text></svg>