<?xml version="1.0" encoding="utf-8"?>
<!-- Generator: Adobe Illustrator 23.0.6, SVG Export Plug-In . SVG Version: 6.00 Build 0)  -->
<svg version="1.1" id="Layer_1" xmlns="http://www.w3.org/2000/svg" xmlns:xlink="http://www.w3.org/1999/xlink" x="0px" y="0px"
	 viewBox="0 0 346.53 346.53" style="enable-background:new 0 0 346.53 346.53;" xml:space="preserve">
<style type="text/css">
	.st0{opacity:0.67;fill:url(#SVGID_1_);}
	.st1{fill:url(#SVGID_2_);}
	.st2{fill:url(#SVGID_3_);}
	.st3{fill:url(#SVGID_4_);}
	.st4{fill:url(#SVGID_5_);}
	.st5{fill:url(#SVGID_6_);}
	.st6{fill:url(#SVGID_7_);}
	.st7{fill:url(#SVGID_8_);}
	.st8{fill:url(#SVGID_9_);}
	.st9{fill:url(#SVGID_10_);}
	.st10{fill:url(#SVGID_11_);}
	.st11{fill:url(#SVGID_12_);}
	.st12{fill:url(#SVGID_13_);}
	.st13{fill:url(#SVGID_14_);}
	.st14{fill:url(#SVGID_15_);}
	.st15{display:none;}
	.st16{display:inline;}
	.st17{fill:#FFFFFF;}
	.st18{fill:#FFFFFF;stroke:#000000;stroke-miterlimit:10;}
	.st19{stroke:#FFFFFF;stroke-miterlimit:10;}
	.st20{fill:#808080;}
</style>
<g>
	<linearGradient id="SVGID_1_" gradientUnits="userSpaceOnUse" x1="173.0147" y1="10.2647" x2="173.0147" y2="336.2647">
		<stop  offset="0" style="stop-color:#333333;stop-opacity:0"/>
		<stop  offset="0.7614" style="stop-color:#000000"/>
	</linearGradient>
	<circle class="st0" cx="173.01" cy="173.26" r="163"/>
	<g>
		<g>
			<g>
				<linearGradient id="SVGID_2_" gradientUnits="userSpaceOnUse" x1="135.5673" y1="268.7647" x2="135.5673" y2="125.6663">
					<stop  offset="0" style="stop-color:#BFBFBF"/>
					<stop  offset="0.79" style="stop-color:#E6E6E6"/>
					<stop  offset="0.802" style="stop-color:#BFBFBF"/>
				</linearGradient>
				<path class="st1" d="M148.62,124.52c0-4.42-5.69-5.98-7.83-2.14l-18.28,31.84l0.12,115.54h25.65L148.62,124.52z"/>
				<g>
					<linearGradient id="SVGID_3_" gradientUnits="userSpaceOnUse" x1="135.848" y1="268.2941" x2="135.848" y2="289.4758">
						<stop  offset="0" style="stop-color:#000000"/>
						<stop  offset="0.1928" style="stop-color:#050404"/>
						<stop  offset="0.4097" style="stop-color:#120E0E"/>
						<stop  offset="0.6383" style="stop-color:#291F1F"/>
						<stop  offset="0.8736" style="stop-color:#483737"/>
						<stop  offset="1" style="stop-color:#5C4646"/>
					</linearGradient>
					<path class="st2" d="M138.85,292.23v-8.96h1.5l8-14h-25l8,14h1.5v8.96c0.95-0.62,1.95-0.96,3-0.96S137.9,291.6,138.85,292.23z"
						/>
				</g>
			</g>
			<linearGradient id="SVGID_4_" gradientUnits="userSpaceOnUse" x1="135.848" y1="295.1176" x2="135.848" y2="312.1176">
				<stop  offset="0" style="stop-color:#000000"/>
				<stop  offset="0.7157" style="stop-color:#783737"/>
				<stop  offset="1" style="stop-color:#AB4B4B"/>
			</linearGradient>
			<path class="st3" d="M125.85,314.26c0-11.6,4.48-21,10-21s10,9.4,10,21H125.85z"/>
		</g>
		<g>
			<g>
				<linearGradient id="SVGID_5_" gradientUnits="userSpaceOnUse" x1="211.1857" y1="268.7647" x2="211.1857" y2="125.6663">
					<stop  offset="0" style="stop-color:#BFBFBF"/>
					<stop  offset="0.79" style="stop-color:#E6E6E6"/>
					<stop  offset="0.802" style="stop-color:#BFBFBF"/>
				</linearGradient>
				<path class="st4" d="M223.69,154.22l-17.67-31.84c-2.13-3.84-7.83-2.28-7.83,2.14l0.33,145.24h25.65L223.69,154.22z"/>
				<g>
					<linearGradient id="SVGID_6_" gradientUnits="userSpaceOnUse" x1="210.848" y1="268.2941" x2="210.848" y2="289.4758">
						<stop  offset="0" style="stop-color:#000000"/>
						<stop  offset="0.1928" style="stop-color:#050404"/>
						<stop  offset="0.4097" style="stop-color:#120E0E"/>
						<stop  offset="0.6383" style="stop-color:#291F1F"/>
						<stop  offset="0.8736" style="stop-color:#483737"/>
						<stop  offset="1" style="stop-color:#5C4646"/>
					</linearGradient>
					<path class="st5" d="M213.85,292.23v-8.96h1.5l8-14h-25l8,14h1.5v8.96c0.95-0.62,1.95-0.96,3-0.96S212.9,291.6,213.85,292.23z"
						/>
				</g>
			</g>
			<linearGradient id="SVGID_7_" gradientUnits="userSpaceOnUse" x1="210.848" y1="295.1176" x2="210.848" y2="312.1176">
				<stop  offset="0" style="stop-color:#000000"/>
				<stop  offset="0.7157" style="stop-color:#783737"/>
				<stop  offset="1" style="stop-color:#AB4B4B"/>
			</linearGradient>
			<path class="st6" d="M200.85,314.26c0-11.6,4.48-21,10-21s10,9.4,10,21H200.85z"/>
		</g>
		<g>
			<g>
				<linearGradient id="SVGID_8_" gradientUnits="userSpaceOnUse" x1="173.4068" y1="268.4118" x2="173.4068" y2="35.9999">
					<stop  offset="0" style="stop-color:#BFBFBF"/>
					<stop  offset="0.79" style="stop-color:#E6E6E6"/>
					<stop  offset="0.802" style="stop-color:#BFBFBF"/>
				</linearGradient>
				<path class="st7" d="M180.99,38.61c-2.44-7.27-12.73-7.27-15.17,0L150.3,84.9v46.22v92.43v46.22h46.22v-46.22v-92.43V84.9
					L180.99,38.61z"/>
				<g>
					<linearGradient id="SVGID_9_" gradientUnits="userSpaceOnUse" x1="173.2059" y1="268.2941" x2="173.2059" y2="289.4758">
						<stop  offset="0" style="stop-color:#000000"/>
						<stop  offset="0.1928" style="stop-color:#050404"/>
						<stop  offset="0.4097" style="stop-color:#120E0E"/>
						<stop  offset="0.6383" style="stop-color:#291F1F"/>
						<stop  offset="0.8736" style="stop-color:#483737"/>
						<stop  offset="1" style="stop-color:#5C4646"/>
					</linearGradient>
					<path class="st8" d="M186.4,290.26c1.76,0,3.41,0.96,4.84,2.63l5.28-23.63H149.9l5.36,24.01c1.5-1.9,3.26-3.01,5.14-3.01
						c3.7,0,6.92,4.23,8.65,10.5l2.4,1.08c1.3,0.58,2.8,0.53,4.06-0.13l2.32-1.22C179.57,294.37,182.75,290.26,186.4,290.26z"/>
				</g>
			</g>
			<linearGradient id="SVGID_10_" gradientUnits="userSpaceOnUse" x1="160.3971" y1="295.1176" x2="160.3971" y2="312.1176">
				<stop  offset="0" style="stop-color:#000000"/>
				<stop  offset="0.7157" style="stop-color:#783737"/>
				<stop  offset="1" style="stop-color:#AB4B4B"/>
			</linearGradient>
			<path class="st9" d="M150.4,314.26c0-11.6,4.48-21,10-21c5.52,0,10,9.4,10,21H150.4z"/>
			<linearGradient id="SVGID_11_" gradientUnits="userSpaceOnUse" x1="186.3971" y1="295.1176" x2="186.3971" y2="312.1176">
				<stop  offset="0" style="stop-color:#000000"/>
				<stop  offset="0.7157" style="stop-color:#783737"/>
				<stop  offset="1" style="stop-color:#AB4B4B"/>
			</linearGradient>
			<path class="st10" d="M176.4,314.26c0-11.6,4.48-21,10-21c5.52,0,10,9.4,10,21H176.4z"/>
		</g>
	</g>
	<g>
		<g>
			<linearGradient id="SVGID_12_" gradientUnits="userSpaceOnUse" x1="10.5147" y1="261.2999" x2="173.5147" y2="261.2999">
				<stop  offset="0.1218" style="stop-color:#FF4545"/>
				<stop  offset="0.5584" style="stop-color:#FFDA75"/>
				<stop  offset="0.7487" style="stop-color:#FFF6DB"/>
			</linearGradient>
			<path class="st11" d="M173.51,335.76c0,0-73.69,4.57-127-60c-32-37-36-89-36-89s8,102,108,133c8-7,16.07-4.22,29.78-4.58
				c9.03-0.24,19.21,0.07,22.22,1.58c2,1,3,2,3,2V335.76z"/>
			<linearGradient id="SVGID_13_" gradientUnits="userSpaceOnUse" x1="8.5206" y1="262.2214" x2="175.5147" y2="262.2214">
				<stop  offset="0" style="stop-color:#FF4545;stop-opacity:0"/>
				<stop  offset="0.3401" style="stop-color:#FF4545"/>
				<stop  offset="0.7614" style="stop-color:#FFDA75"/>
				<stop  offset="0.9112" style="stop-color:#FFF6DB"/>
			</linearGradient>
			<path class="st12" d="M10.51,186.76C10.51,186.76,10.51,186.76,10.51,186.76S10.51,186.76,10.51,186.76 M10.51,186.76
				L10.51,186.76L10.51,186.76 M10.51,186.76c0,0.05,8.02,102.01,108,133c4.64-4.06,9.3-4.83,15.08-4.83
				c3.53,0,7.47,0.29,12.07,0.29c0.86,0,1.73-0.01,2.64-0.03c1.75-0.05,3.54-0.07,5.32-0.07c7.39,0,14.47,0.44,16.9,1.65
				c2,1,3,2,3,2v17c0,0-1.14,0.07-3.22,0.07c-14.75,0-77.08-3.51-123.78-60.07C14.52,238.78,10.52,186.8,10.51,186.76 M12.51,186.61
				l-3.99,0.31c0.04,0.54,1.08,13.43,6.08,31.04c4.62,16.27,13.64,39.73,30.4,59.11c20.06,24.29,45.21,41.74,74.73,51.83
				c23.6,8.06,43.21,8.93,50.55,8.93c2.13,0,3.3-0.07,3.35-0.07l1.88-0.12v-1.88v-17v-0.83l-0.59-0.59
				c-0.13-0.13-1.29-1.26-3.52-2.37c-2.46-1.23-8.45-1.86-17.79-1.86c-1.75,0-3.55,0.02-5.37,0.07c-0.85,0.02-1.69,0.03-2.59,0.03
				c-2.42,0-4.63-0.08-6.76-0.16c-1.86-0.07-3.62-0.13-5.31-0.13c-5.83,0-10.75,0.8-15.52,4.59
				c-50.24-15.93-76.22-50.42-89.19-76.63C14.67,212.18,12.53,186.86,12.51,186.61L12.51,186.61z"/>
		</g>
		<g>
			<linearGradient id="SVGID_14_" gradientUnits="userSpaceOnUse" x1="-93.9853" y1="261.2999" x2="69.0147" y2="261.2999" gradientTransform="matrix(-1 0 0 1 241.5294 0)">
				<stop  offset="0.1218" style="stop-color:#FF4545"/>
				<stop  offset="0.5584" style="stop-color:#FFDA75"/>
				<stop  offset="0.7487" style="stop-color:#FFF6DB"/>
			</linearGradient>
			<path class="st13" d="M172.51,335.76c0,0,73.69,4.57,127-60c32-37,36-89,36-89s-8,102-108,133c-8-7-16.07-4.22-29.78-4.58
				c-9.03-0.24-19.21,0.07-22.22,1.58c-2,1-3,2-3,2V335.76z"/>
			<linearGradient id="SVGID_15_" gradientUnits="userSpaceOnUse" x1="337.5088" y1="262.2214" x2="170.5147" y2="262.2214">
				<stop  offset="0" style="stop-color:#FF4545;stop-opacity:0"/>
				<stop  offset="0.3401" style="stop-color:#FF4545"/>
				<stop  offset="0.7614" style="stop-color:#FFDA75"/>
				<stop  offset="0.9112" style="stop-color:#FFF6DB"/>
			</linearGradient>
			<path class="st14" d="M335.51,186.76C335.51,186.76,335.51,186.76,335.51,186.76S335.51,186.76,335.51,186.76 M335.51,186.76
				L335.51,186.76L335.51,186.76 M335.51,186.76c0,0.03-4.01,52.01-36,89c-46.7,56.56-109.03,60.07-123.78,60.07
				c-2.09,0-3.22-0.07-3.22-0.07v-17c0,0,1-1,3-2c2.42-1.21,9.51-1.65,16.9-1.65c1.78,0,3.57,0.03,5.32,0.07
				c0.9,0.02,1.78,0.03,2.64,0.03c4.6,0,8.54-0.29,12.07-0.29c5.77,0,10.44,0.77,15.08,4.83
				C327.49,288.77,335.51,186.81,335.51,186.76 M333.52,186.61c-0.02,0.25-2.16,25.58-16.37,54.29
				c-12.97,26.22-38.96,60.7-89.19,76.63c-4.77-3.79-9.69-4.59-15.52-4.59c-1.68,0-3.44,0.06-5.31,0.13
				c-2.14,0.08-4.35,0.16-6.76,0.16c-0.89,0-1.74-0.01-2.59-0.03c-1.82-0.05-3.63-0.07-5.37-0.07c-9.34,0-15.33,0.62-17.79,1.86
				c-2.23,1.11-3.39,2.25-3.52,2.37l-0.59,0.59v0.83v17v1.88l1.88,0.12c0.05,0,1.22,0.07,3.35,0.07c7.34,0,26.96-0.87,50.55-8.93
				c29.52-10.09,54.68-27.54,74.76-51.87c16.73-19.35,25.76-42.81,30.37-59.08c5-17.61,6.04-30.5,6.08-31.04L333.52,186.61
				L333.52,186.61z"/>
		</g>
	</g>
</g>
<g class="st15">
	<g class="st16">
		<g>
			<g>
				<rect x="72.39" y="223.04" class="st17" width="24.65" height="45.22"/>
				<path d="M96.54,223.54v44.22H72.89v-44.22H96.54 M97.54,222.54H71.89v46.22h25.65V222.54L97.54,222.54z"/>
			</g>
			<g>
				<rect x="72.39" y="176.83" class="st17" width="24.65" height="45.22"/>
				<path d="M96.54,177.33v44.22H72.89v-44.22H96.54 M97.54,176.33H71.89v46.22h25.65V176.33L97.54,176.33z"/>
			</g>
			<g>
				<rect x="72.26" y="153.72" class="st17" width="24.65" height="22.11"/>
				<path d="M96.41,154.22v21.11H72.76v-21.11H96.41 M97.41,153.22H71.76v23.11h25.65V153.22L97.41,153.22z"/>
			</g>
			<path class="st18" d="M97.87,123.52v30.02H72.19l17.85-32.16C92.18,117.54,97.87,119.1,97.87,123.52z"/>
			<g>
				<rect x="78.29" y="243.08" width="12.84" height="25.68"/>
			</g>
			<g>
				<rect x="78.29" y="196.87" width="12.84" height="25.68"/>
			</g>
		</g>
		<g>
			<rect x="82.1" y="280.26" class="st19" width="6" height="13"/>
			<polygon class="st19" points="89.6,283.26 80.6,283.26 72.6,269.26 97.6,269.26 			"/>
			<path class="st19" d="M75.1,311.26c0-11.6,4.48-21,10-21c5.52,0,10,9.4,10,21H75.1z"/>
		</g>
	</g>
	<g class="st16">
		<g>
			<g>
				<rect x="144.28" y="223.04" class="st17" width="24.65" height="45.22"/>
				<path d="M168.43,223.54v44.22h-23.65v-44.22H168.43 M169.43,222.54h-25.65v46.22h25.65V222.54L169.43,222.54z"/>
			</g>
			<g>
				<rect x="144.28" y="176.83" class="st17" width="24.65" height="45.22"/>
				<path d="M168.43,177.33v44.22h-23.65v-44.22H168.43 M169.43,176.33h-25.65v46.22h25.65V176.33L169.43,176.33z"/>
			</g>
			<g>
				<rect x="144.4" y="153.72" class="st17" width="24.65" height="22.11"/>
				<path d="M168.55,154.22v21.11H144.9v-21.11H168.55 M169.55,153.22H143.9v23.11h25.65V153.22L169.55,153.22z"/>
			</g>
			<path class="st18" d="M143.44,123.52v30.02h25.68l-17.85-32.16C149.14,117.54,143.44,119.1,143.44,123.52z"/>
			<g>
				<rect x="150.18" y="243.08" width="12.84" height="25.68"/>
			</g>
			<g>
				<rect x="150.18" y="196.87" width="12.84" height="25.68"/>
			</g>
		</g>
		<g>
			<rect x="154.1" y="280.26" class="st19" width="6" height="13"/>
			<polygon class="st19" points="161.6,283.26 152.6,283.26 144.6,269.26 169.6,269.26 			"/>
			<path class="st19" d="M147.1,311.26c0-11.6,4.48-21,10-21s10,9.4,10,21H147.1z"/>
		</g>
	</g>
	<g class="st16">
		<g>
			<rect x="98.05" y="130.61" class="st17" width="45.22" height="91.43"/>
			<path d="M142.76,131.11v90.43H98.55v-90.43H142.76 M143.76,130.11H97.55v92.43h46.22V130.11L143.76,130.11z"/>
		</g>
		<g>
			<path class="st17" d="M98.24,83.4l15.3-45.63c1.04-3.11,3.83-5.11,7.11-5.11s6.07,2.01,7.11,5.11l15.3,45.63H98.24z"/>
			<path d="M120.66,33.15c2.43,0,5.45,1.25,6.64,4.77l15.08,44.97H98.94l15.08-44.97C115.2,34.41,118.22,33.15,120.66,33.15
				 M120.66,32.15c-3.18,0-6.36,1.82-7.58,5.46L97.55,83.9h46.22l-15.52-46.29C127.02,33.97,123.84,32.15,120.66,32.15L120.66,32.15
				z"/>
		</g>
		<g>
			<g>
				<rect x="98.05" y="223.04" class="st17" width="45.22" height="45.22"/>
				<path d="M142.76,223.54v44.22H98.55v-44.22H142.76 M143.76,222.54H97.55v46.22h46.22V222.54L143.76,222.54z"/>
			</g>
			<g>
				<rect x="103.97" y="243.08" width="11.55" height="25.68"/>
			</g>
			<g>
				<rect x="125.79" y="243.08" width="11.55" height="25.68"/>
			</g>
		</g>
		<g>
			<g>
				<rect x="98.05" y="84.4" class="st17" width="45.22" height="45.22"/>
				<path d="M142.76,84.9v44.22H98.55V84.9H142.76 M143.76,83.9H97.55v46.22h46.22V83.9L143.76,83.9z"/>
			</g>
			<g>
				<rect x="103.97" y="104.44" width="11.55" height="25.68"/>
			</g>
			<g>
				<rect x="125.79" y="104.44" width="11.55" height="25.68"/>
			</g>
		</g>
		<g>
			<path class="st19" d="M137.85,295.76l-13.68,5.06c-2.52,0.93-5.28,0.92-7.79-0.03l-13.31-5.03l-5.92-26.5h46.62L137.85,295.76z"
				/>
			<path class="st19" d="M97.65,311.26c0-11.6,4.48-21,10-21c5.52,0,10,9.4,10,21H97.65z"/>
			<path class="st19" d="M123.65,311.26c0-11.6,4.48-21,10-21c5.52,0,10,9.4,10,21H123.65z"/>
		</g>
	</g>
</g>
<g class="st15">
	<g class="st16">
		<rect x="78.29" y="243.08" class="st20" width="12.84" height="25.68"/>
	</g>
	<g class="st16">
		<rect x="78.29" y="196.87" class="st20" width="12.84" height="25.68"/>
	</g>
	<g class="st16">
		<rect x="150.18" y="243.08" class="st20" width="12.84" height="25.68"/>
	</g>
	<g class="st16">
		<rect x="150.18" y="196.87" class="st20" width="12.84" height="25.68"/>
	</g>
	<g class="st16">
		<rect x="103.97" y="243.08" class="st20" width="11.55" height="25.68"/>
	</g>
	<g class="st16">
		<rect x="125.79" y="243.08" class="st20" width="11.55" height="25.68"/>
	</g>
	<g class="st16">
		<rect x="103.97" y="104.44" class="st20" width="11.55" height="25.68"/>
	</g>
	<g class="st16">
		<rect x="125.79" y="104.44" class="st20" width="11.55" height="25.68"/>
	</g>
</g>
</svg>
