<?xml version="1.0" encoding="UTF-8" standalone="no"?>
<!-- Created with Inkscape (http://www.inkscape.org/) -->

<svg
   xmlns:dc="http://purl.org/dc/elements/1.1/"
   xmlns:cc="http://creativecommons.org/ns#"
   xmlns:rdf="http://www.w3.org/1999/02/22-rdf-syntax-ns#"
   xmlns:svg="http://www.w3.org/2000/svg"
   xmlns="http://www.w3.org/2000/svg"
   xmlns:sodipodi="http://sodipodi.sourceforge.net/DTD/sodipodi-0.dtd"
   xmlns:inkscape="http://www.inkscape.org/namespaces/inkscape"
   width="160mm"
   height="100mm"
   viewBox="0 0 566.92915 354.33071"
   id="svg3336"
   version="1.1"
   inkscape:version="0.91 r13725"
   sodipodi:docname="kairyuu.svg"
   inkscape:export-filename="/home/bill/ksp/src/Extraplanetary-Launchpads/kairyuu.png"
   inkscape:export-xdpi="101.6"
   inkscape:export-ydpi="101.6">
  <defs
     id="defs3338" />
  <sodipodi:namedview
     id="base"
     pagecolor="#353535"
     bordercolor="#666666"
     borderopacity="1.0"
     inkscape:pageopacity="1"
     inkscape:pageshadow="2"
     inkscape:zoom="2.1216886"
     inkscape:cx="262.01651"
     inkscape:cy="165.65944"
     inkscape:document-units="px"
     inkscape:current-layer="layer1"
     showgrid="true"
     showguides="true"
     inkscape:guide-bbox="true"
     guidecolor="#ff008a"
     guideopacity="0.49803922"
     inkscape:snap-global="false"
     inkscape:window-width="1920"
     inkscape:window-height="1036"
     inkscape:window-x="0"
     inkscape:window-y="0"
     inkscape:window-maximized="1">
    <inkscape:grid
       type="xygrid"
       id="grid3344"
       spacingx="17.716536"
       spacingy="17.716535"
       empspacing="4"
       dotted="false"
       units="mm"
       color="#1cff00"
       opacity="0.1254902"
       empcolor="#1cff00"
       empopacity="0.25098039" />
    <sodipodi:guide
       position="124.01575,318.89763"
       orientation="0,1"
       id="guide3346" />
    <sodipodi:guide
       position="378.94345,177.21733"
       orientation="0,1"
       id="guide3348" />
    <sodipodi:guide
       position="-35.433072,35.43307"
       orientation="0,1"
       id="guide3350" />
    <sodipodi:guide
       position="124.01575,212.59842"
       orientation="1,0"
       id="guide3352" />
    <sodipodi:guide
       position="248.0315,177.16535"
       orientation="1,0"
       id="guide3354" />
    <sodipodi:guide
       position="389.76379,212.59842"
       orientation="1,0"
       id="guide3356" />
    <sodipodi:guide
       position="531.49608,248.03149"
       orientation="1,0"
       id="guide3358" />
    <sodipodi:guide
       position="70.866144,283.46456"
       orientation="0,1"
       id="guide4630" />
    <sodipodi:guide
       position="70.866144,70.86614"
       orientation="0,1"
       id="guide4632" />
    <sodipodi:guide
       position="35.433072,248.03149"
       orientation="1,0"
       id="guide4634" />
    <sodipodi:guide
       position="212.59843,248.03149"
       orientation="1,0"
       id="guide4636" />
  </sodipodi:namedview>
  <metadata
     id="metadata3341">
    <rdf:RDF>
      <cc:Work
         rdf:about="">
        <dc:format>image/svg+xml</dc:format>
        <dc:type
           rdf:resource="http://purl.org/dc/dcmitype/StillImage" />
        <dc:title></dc:title>
      </cc:Work>
    </rdf:RDF>
  </metadata>
  <g
     inkscape:label="Layer 1"
     inkscape:groupmode="layer"
     id="layer1"
     transform="translate(0,-698.0315)">
    <path
       style="fill:#ffffff;fill-opacity:1;fill-rule:evenodd;stroke:#ffffff;stroke-width:0.91796178px;stroke-linecap:butt;stroke-linejoin:miter;stroke-opacity:1"
       d="m 414.58724,768.93718 c -18.03888,3.11713 -18.71477,-31.64181 -18.71477,-31.64181 16.65399,16.3634 35.49728,28.7418 18.71477,31.64181 z"
       id="path3362"
       inkscape:connector-curvature="0"
       sodipodi:nodetypes="scs" />
    <path
       style="fill:#ffffff;fill-opacity:1;fill-rule:evenodd;stroke:#ffffff;stroke-width:0.90353376px;stroke-linecap:butt;stroke-linejoin:miter;stroke-opacity:1"
       d="m 413.97067,819.60277 c -17.46487,3.11917 -17.63751,-31.996 -17.63751,-31.996 16.12405,16.3741 33.88598,29.09409 17.63751,31.996 z"
       id="path3362-1"
       inkscape:connector-curvature="0"
       sodipodi:nodetypes="scs" />
    <path
       style="fill:#ffffff;fill-opacity:1;fill-rule:evenodd;stroke:#ffffff;stroke-width:1px;stroke-linecap:butt;stroke-linejoin:miter;stroke-opacity:1"
       d="m 437.5253,777.56962 c -7.55066,38.46828 -20.40021,68.72594 -41.69981,83.95181 0,0 0.0256,8.47927 17.68795,7.09503 14.88368,-1.16646 25.04136,-73.36024 24.01186,-91.04684 z"
       id="path4179"
       inkscape:connector-curvature="0"
       sodipodi:nodetypes="ccsc" />
    <path
       style="fill:#ffffff;fill-opacity:1;fill-rule:evenodd;stroke:#ffffff;stroke-width:0.53571898px;stroke-linecap:butt;stroke-linejoin:miter;stroke-opacity:1"
       d="m 469.18405,739.99504 c -16.1036,35.48169 -18.09723,34.38202 -26.19643,39.67675 0,0 -3.39117,3.59495 10.87038,3.59495 14.26154,0 16.05929,-36.99808 15.32605,-43.2717 z"
       id="path4179-1"
       inkscape:connector-curvature="0"
       sodipodi:nodetypes="ccsc" />
    <path
       style="fill:#ffffff;fill-opacity:1;fill-rule:evenodd;stroke:#ffffff;stroke-width:1.2897929px;stroke-linecap:butt;stroke-linejoin:miter;stroke-opacity:1"
       d="m 468.13202,755.91625 c 25.27867,1.62 31.30962,0.9 56.33165,-1.07999 1.40926,-0.1115 7.31092,6.85895 0.64159,7.19993 -14.76274,0.75479 -41.96002,1.08001 -58.38473,-0.35998 -0.64034,-0.0561 0.38496,-2.69999 1.41149,-5.75996 z"
       id="path4196"
       inkscape:connector-curvature="0"
       sodipodi:nodetypes="csssc" />
    <path
       style="fill:#ffffff;fill-opacity:1;fill-rule:evenodd;stroke:#ffffff;stroke-width:1px;stroke-linecap:butt;stroke-linejoin:miter;stroke-opacity:1"
       d="m 470.25169,771.411 c -11.60182,35.37722 -9.60189,24.72834 -30.32806,64.65543 25.91216,0.24997 56.7171,-1.69042 72.32077,-3.33275 3.25017,-0.34209 2.44882,-7.20506 -0.33327,-6.99879 -17.82976,1.32196 -36.648,3.83509 -60.73946,3.74936 6.4804,-10.91269 30.96344,-54.14557 28.66169,-56.82347 -1.2313,-1.43252 -8.7964,-3.64429 -9.58167,-1.24978 z"
       id="path4198"
       inkscape:connector-curvature="0"
       sodipodi:nodetypes="scsscss" />
    <path
       style="fill:#ffffff;fill-opacity:1;fill-rule:evenodd;stroke:#ffffff;stroke-width:1px;stroke-linecap:butt;stroke-linejoin:miter;stroke-opacity:1"
       d="m 476.9172,776.07685 c 24.37777,2.17386 34.6982,-0.17915 48.49158,-2.6662 -6.99878,28.10623 -24.04668,73.7232 -28.16177,78.98628 -5.40478,6.91256 -1.7833,10.93194 -28.32842,9.99827 -2.95501,-0.10394 -2.8037,-9.12407 1.83302,-8.99844 18.32302,0.49648 16.53061,0.54376 20.3298,-5.83232 7.1548,-12.00775 21.21854,-48.60267 24.16247,-64.15553 -16.57047,2.45086 -28.75581,1.74785 -40.49296,0 -1.79288,-3.94433 -1.68416,-7.57112 2.16628,-7.33206 z"
       id="path4200"
       inkscape:connector-curvature="0"
       sodipodi:nodetypes="ccssssccc" />
    <path
       style="fill:#ffffff;fill-rule:evenodd;stroke:#ffffff;stroke-width:1px;stroke-linecap:butt;stroke-linejoin:miter;stroke-opacity:1;fill-opacity:1"
       d="m 465.4192,848.89754 c 0,0 27.32859,-70.82103 30.4947,-75.65353 2.36909,-3.61599 8.68765,-4.78545 6.83215,0.49991 -5.49905,15.66395 -37.82676,72.15414 -37.32685,75.15362 z"
       id="path4202"
       inkscape:connector-curvature="0"
       sodipodi:nodetypes="cssc" />
    <path
       style="fill:#ffffff;fill-opacity:1;fill-rule:evenodd;stroke:#ffffff;stroke-width:1.48859322px;stroke-linecap:butt;stroke-linejoin:miter;stroke-opacity:1"
       d="m 452.03352,801.30335 c 26.13368,0.95248 46.43141,1.62865 70.66051,-0.0527 2.75483,-0.19117 9.99238,6.68455 0.8769,7.01686 -20.17735,0.73559 -42.16822,1.25469 -76.1328,-0.35083 -4.23961,-0.20041 1.30185,-6.73337 4.59539,-6.61334 z"
       id="path4196-9"
       inkscape:connector-curvature="0"
       sodipodi:nodetypes="sssss" />
    <path
       style="fill:#ffffff;fill-opacity:1;fill-rule:evenodd;stroke:#ffffff;stroke-width:1px;stroke-linecap:butt;stroke-linejoin:miter;stroke-opacity:1"
       d="m 430.39381,903.69767 c 0,0 -5.99896,-2.99948 -10.33154,-5.33241 -2.07493,-1.11728 -5.66568,-1.66638 -4.99913,-7.99862 0.66656,-6.33223 6.42847,-7.69226 9.99826,-2.99947 2.75024,3.61542 4.33258,14.66412 5.33241,16.3305 z"
       id="path4219"
       inkscape:connector-curvature="0"
       sodipodi:nodetypes="csssc" />
    <path
       style="fill:#ffffff;fill-opacity:1;fill-rule:evenodd;stroke:#ffffff;stroke-width:1.48859322px;stroke-linecap:butt;stroke-linejoin:miter;stroke-opacity:1"
       d="m 404.34013,899.61929 c 26.13368,0.95248 22.62961,2.09997 46.85871,0.41862 2.75483,-0.19117 3.86519,6.44889 -5.25029,6.7812 -20.17735,0.73559 -11.76791,1.72601 -45.73249,0.12049 -4.23961,-0.20041 0.83053,-7.44035 4.12407,-7.32031 z"
       id="path4196-9-6"
       inkscape:connector-curvature="0"
       sodipodi:nodetypes="sssss" />
    <path
       style="fill:#ffffff;fill-opacity:1;fill-rule:evenodd;stroke:#ffffff;stroke-width:1px;stroke-linecap:butt;stroke-linejoin:miter;stroke-opacity:1"
       d="m 409.81508,907.66615 c -2.55235,-0.45323 -4.94889,1.41397 -5.18455,3.0636 -0.23566,1.64963 5.42021,19.08857 7.54116,19.55989 2.12096,0.47133 5.65588,0.47133 7.06984,-1.1783 1.41397,-1.64963 -7.99043,-21.19019 -9.42645,-21.44519 z"
       id="path4236"
       inkscape:connector-curvature="0"
       sodipodi:nodetypes="sssss" />
    <path
       style="fill:#ffffff;fill-opacity:1;fill-rule:evenodd;stroke:#ffffff;stroke-width:1px;stroke-linecap:butt;stroke-linejoin:miter;stroke-opacity:1"
       d="m 442.74338,908.94805 c -2.18704,-1.39169 -5.65587,-0.94265 -5.89153,0.70698 -0.23566,1.64963 -4.94889,19.79556 -2.82794,20.26688 2.12096,0.47133 3.41709,1.23723 4.83105,-0.4124 1.41397,-1.64963 5.67794,-19.42273 3.88842,-20.56146 z"
       id="path4236-6"
       inkscape:connector-curvature="0"
       sodipodi:nodetypes="sssss" />
    <path
       style="fill:#ffffff;fill-opacity:1;fill-rule:evenodd;stroke:#ffffff;stroke-width:1.48859322px;stroke-linecap:butt;stroke-linejoin:miter;stroke-opacity:1"
       d="m 404.54987,928.79248 c 26.13368,0.95248 16.29737,2.09997 40.52647,0.41862 2.75483,-0.19117 4.86502,6.61553 -4.25046,6.94784 -20.17735,0.73559 -6.26887,1.55937 -40.23345,-0.0462 -4.23961,-0.20041 0.6639,-7.44035 3.95744,-7.32031 z"
       id="path4196-9-6-9"
       inkscape:connector-curvature="0"
       sodipodi:nodetypes="sssss" />
    <path
       style="color:#000000;clip-rule:nonzero;display:inline;overflow:visible;visibility:visible;opacity:1;isolation:auto;mix-blend-mode:normal;color-interpolation:sRGB;color-interpolation-filters:linearRGB;solid-color:#000000;solid-opacity:1;fill:#ffffff;fill-opacity:1;fill-rule:evenodd;stroke:#ffffff;stroke-width:1.48859322px;stroke-linecap:butt;stroke-linejoin:miter;stroke-miterlimit:4;stroke-dasharray:none;stroke-dashoffset:0;stroke-opacity:1;color-rendering:auto;image-rendering:auto;shape-rendering:auto;text-rendering:auto;enable-background:accumulate"
       d="m 399.44599,951.49916 c 0.20624,3.42825 3.29925,46.66095 0.23565,53.02384 -3.0636,6.3628 -7.30549,9.4264 -7.30549,9.4264 0,0 0.7235,1.4045 5.89153,1.6496 4.99342,0.2369 9.19079,-8.4838 8.95513,-14.8466 -0.23566,-6.36287 0.64768,-43.6731 -1.17831,-48.78191 -0.66471,-1.85978 -6.83539,-4.4088 -6.59851,-0.47133 z"
       id="path4268"
       inkscape:connector-curvature="0"
       sodipodi:nodetypes="sscssss" />
    <path
       style="color:#000000;clip-rule:nonzero;display:inline;overflow:visible;visibility:visible;opacity:1;isolation:auto;mix-blend-mode:normal;color-interpolation:sRGB;color-interpolation-filters:linearRGB;solid-color:#000000;solid-opacity:1;fill:#ffffff;fill-opacity:1;fill-rule:evenodd;stroke:#ffffff;stroke-width:1.48859322px;stroke-linecap:butt;stroke-linejoin:miter;stroke-miterlimit:4;stroke-dasharray:none;stroke-dashoffset:0;stroke-opacity:1;color-rendering:auto;image-rendering:auto;shape-rendering:auto;text-rendering:auto;enable-background:accumulate"
       d="m 408.40111,948.19991 c -2.53193,0.17747 1.1403,6.67393 4.00625,6.59851 8.95513,-0.23566 22.38782,-2.35661 24.74444,0 2.35661,2.35661 4.2419,45.71828 1.64963,49.25318 -2.59228,3.535 -15.08232,7.7768 -10.3691,9.6621 4.71323,1.8853 4.3794,3.7707 6.59852,3.7706 3.29926,0 13.90401,-8.0124 13.90401,-13.4326 0,-5.42027 -0.47132,-52.08122 -4.24189,-55.14481 -3.70346,-3.00905 -25.2256,-1.48269 -36.29186,-0.70698 z"
       id="path4270"
       inkscape:connector-curvature="0"
       sodipodi:nodetypes="sssssssss" />
    <path
       style="fill:#ffffff;fill-opacity:1;fill-rule:evenodd;stroke:#ffffff;stroke-width:1.48859322px;stroke-linecap:butt;stroke-linejoin:miter;stroke-opacity:1"
       d="m 435.47021,968.77087 c 2.73805,-0.35881 4.27673,4.71603 -0.009,5.76953 -4.13913,1.01757 -16.16665,2.0307 -23.5015,0.66079 -4.1722,-0.77923 -3.7983,-4.65042 -0.0506,-5.27344 6.33995,-0.1517 12.52861,0.28881 23.56067,-1.15688 z"
       id="path4196-9-6-9-7"
       inkscape:connector-curvature="0"
       sodipodi:nodetypes="ssscs" />
    <path
       style="fill:#ffffff;fill-opacity:1;fill-rule:evenodd;stroke:#ffffff;stroke-width:1.48859322px;stroke-linecap:butt;stroke-linejoin:miter;stroke-opacity:1"
       d="m 435.40901,986.83704 c 2.73805,-0.35881 4.27673,4.71603 -0.009,5.76953 -4.13913,1.01757 -16.16665,2.0307 -23.5015,0.66079 -4.1722,-0.77923 -3.7983,-4.65042 -0.0506,-5.27344 6.33995,-0.1517 12.52861,0.28881 23.56067,-1.15688 z"
       id="path4196-9-6-9-7-5"
       inkscape:connector-curvature="0"
       sodipodi:nodetypes="ssscs" />
    <path
       style="fill:#ffffff;fill-opacity:1;fill-rule:evenodd;stroke:#ffffff;stroke-width:1.48859322px;stroke-linecap:butt;stroke-linejoin:miter;stroke-opacity:1"
       d="m 518.11715,895.39627 c -8.72641,0.46089 -24.1602,-0.046 -33.8706,-0.39969 -2.3434,-0.0854 -5.01689,-4.74686 -1.22891,-5.03777 6.32314,-0.48561 27.34089,1.30266 33.1006,0.3958 4.62856,-0.72876 4.83646,4.89179 1.99891,5.04166 z"
       id="path4196-9-6-9-7-5-1"
       inkscape:connector-curvature="0"
       sodipodi:nodetypes="sssss" />
    <path
       style="color:#000000;clip-rule:nonzero;display:inline;overflow:visible;visibility:visible;opacity:1;isolation:auto;mix-blend-mode:normal;color-interpolation:sRGB;color-interpolation-filters:linearRGB;solid-color:#000000;solid-opacity:1;fill:#ffffff;fill-opacity:1;fill-rule:evenodd;stroke:#ffffff;stroke-width:1.48859322px;stroke-linecap:butt;stroke-linejoin:miter;stroke-miterlimit:4;stroke-dasharray:none;stroke-dashoffset:0;stroke-opacity:1;color-rendering:auto;image-rendering:auto;shape-rendering:auto;text-rendering:auto;enable-background:accumulate"
       d="m 472.38317,889.99155 c -0.73635,4.10438 -2.82794,26.39407 0,29.22201 2.82793,2.82793 41.00507,-2.59228 43.36168,0.23566 2.35662,2.82794 -0.82481,17.55677 2.00313,20.14904 2.82794,2.59228 4.4255,4.13269 4.47757,1.06048 0.11782,-6.952 0.71488,-25.47192 -0.94265,-27.45455 -2.36623,-2.83033 -39.35545,1.06048 -42.18338,-2.7101 -2.82794,-3.77058 1.64963,-18.61725 -0.70699,-20.50254 -2.35661,-1.88529 -5.86978,-0.77801 -6.00936,0 z"
       id="path4317"
       inkscape:connector-curvature="0"
       sodipodi:nodetypes="sssssssss" />
    <path
       style="fill:#ffffff;fill-opacity:1;fill-rule:evenodd;stroke:#ffffff;stroke-width:1.48859322px;stroke-linecap:butt;stroke-linejoin:miter;stroke-opacity:1"
       d="m 512.92744,942.15043 c -8.72641,0.46089 -24.1602,-0.046 -33.8706,-0.39969 -2.3434,-0.0854 -5.01689,-4.74686 -1.22891,-5.03777 6.32314,-0.48561 27.34089,1.30266 33.1006,0.3958 4.62856,-0.72876 4.83646,4.89179 1.99891,5.04166 z"
       id="path4196-9-6-9-7-5-1-9"
       inkscape:connector-curvature="0"
       sodipodi:nodetypes="sssss" />
    <path
       style="color:#000000;clip-rule:nonzero;display:inline;overflow:visible;visibility:visible;opacity:1;isolation:auto;mix-blend-mode:normal;color-interpolation:sRGB;color-interpolation-filters:linearRGB;solid-color:#000000;solid-opacity:1;fill:#ffffff;fill-opacity:1;fill-rule:evenodd;stroke:#ffffff;stroke-width:1.48859322px;stroke-linecap:butt;stroke-linejoin:miter;stroke-miterlimit:4;stroke-dasharray:none;stroke-dashoffset:0;stroke-opacity:1;color-rendering:auto;image-rendering:auto;shape-rendering:auto;text-rendering:auto;enable-background:accumulate"
       d="m 474.26846,935.70985 c -3.18143,-2.23878 -2.47444,-2.12095 -4.12407,-1.1783 -1.64963,0.94264 -1.75187,77.42395 0.70699,79.18225 2.10425,1.5047 49.01332,2.6948 50.78501,0.2356 1.59683,-2.2164 0.94578,-12.2766 0.70699,-17.91028 -0.25377,-5.9871 -5.77371,-0.94261 -5.53805,2.00316 0.5168,6.46002 0.23406,7.86932 -0.94264,9.30862 -1.09534,1.3398 -35.49507,1.7838 -39.59111,-1.5318 -3.73794,-3.0256 -2.23878,-69.40226 -2.00312,-70.10925 z"
       id="path4334"
       inkscape:connector-curvature="0"
       sodipodi:nodetypes="csssssssc" />
    <path
       style="fill:#ffffff;fill-opacity:1;fill-rule:evenodd;stroke:#ffffff;stroke-width:1.48859322px;stroke-linecap:butt;stroke-linejoin:miter;stroke-opacity:1"
       d="m 512.45612,960.29635 c -8.72641,0.46089 -24.1602,-0.046 -33.8706,-0.39969 -2.3434,-0.0854 -5.01689,-4.74686 -1.22891,-5.03777 6.32314,-0.48561 27.34089,1.30266 33.1006,0.3958 4.62856,-0.72876 4.83646,4.89179 1.99891,5.04166 z"
       id="path4196-9-6-9-7-5-1-9-1"
       inkscape:connector-curvature="0"
       sodipodi:nodetypes="sssss" />
    <path
       style="fill:#ffffff;fill-opacity:1;fill-rule:evenodd;stroke:#ffffff;stroke-width:1.48859322px;stroke-linecap:butt;stroke-linejoin:miter;stroke-opacity:1"
       d="m 513.39876,974.55386 c -8.72641,0.46089 -24.1602,-0.046 -33.8706,-0.39969 -2.3434,-0.0854 -5.01689,-4.74686 -1.22891,-5.03777 6.32314,-0.48561 27.34089,1.30266 33.1006,0.3958 4.62856,-0.72876 4.83646,4.89179 1.99891,5.04166 z"
       id="path4196-9-6-9-7-5-1-9-3"
       inkscape:connector-curvature="0"
       sodipodi:nodetypes="sssss" />
    <path
       style="fill:#ffffff;fill-opacity:1;fill-rule:evenodd;stroke:#ffffff;stroke-width:1.48859322px;stroke-linecap:butt;stroke-linejoin:miter;stroke-opacity:1"
       d="m 512.92744,990.57883 c -8.72641,0.46089 -24.1602,-0.046 -33.8706,-0.39969 -2.3434,-0.0854 -5.01689,-4.74686 -1.22891,-5.03777 6.32314,-0.48561 27.34089,1.30266 33.1006,0.3958 4.62856,-0.72876 4.83646,4.89179 1.99891,5.04166 z"
       id="path4196-9-6-9-7-5-1-9-39"
       inkscape:connector-curvature="0"
       sodipodi:nodetypes="sssss" />
    <path
       style="fill:#ffffff;fill-opacity:1;fill-rule:evenodd;stroke:#ffffff;stroke-width:0.91796178px;stroke-linecap:butt;stroke-linejoin:miter;stroke-opacity:1"
       d="m 276.63126,768.65286 c -18.03888,3.11713 -18.71477,-31.64181 -18.71477,-31.64181 16.65399,16.3634 35.49728,28.74179 18.71477,31.64181 z"
       id="path3362-14"
       inkscape:connector-curvature="0"
       sodipodi:nodetypes="scs" />
    <path
       style="fill:#ffffff;fill-opacity:1;fill-rule:evenodd;stroke:#ffffff;stroke-width:0.91796178px;stroke-linecap:butt;stroke-linejoin:miter;stroke-opacity:1"
       d="m 274.74597,909.57835 c -18.03888,3.11713 -18.71477,-31.64181 -18.71477,-31.64181 16.65399,16.3634 35.49728,28.74179 18.71477,31.64181 z"
       id="path3362-4"
       inkscape:connector-curvature="0"
       sodipodi:nodetypes="scs" />
    <path
       style="color:#000000;clip-rule:nonzero;display:inline;overflow:visible;visibility:visible;opacity:1;isolation:auto;mix-blend-mode:normal;color-interpolation:sRGB;color-interpolation-filters:linearRGB;solid-color:#000000;solid-opacity:1;fill:#ffffff;fill-opacity:1;fill-rule:evenodd;stroke:#ffffff;stroke-width:1.48859322px;stroke-linecap:butt;stroke-linejoin:miter;stroke-miterlimit:4;stroke-dasharray:none;stroke-dashoffset:0;stroke-opacity:1;color-rendering:auto;image-rendering:auto;shape-rendering:auto;text-rendering:auto;enable-background:accumulate"
       d="m 253.59529,774.9247 c 4.32836,0.1678 27.93608,-0.99913 28.04167,4.09895 0.2506,12.09925 -20.08927,12.83604 -20.13864,29.47848 -0.014,4.7132 16.03505,17.57361 15.63942,24.69503 -0.47132,8.48381 -15.12072,31.75017 -15.12072,31.75017 0,0 27.84129,-6.92397 39.6295,-7.24138 9.76818,-0.26302 46.01369,12.89867 70.22709,1.36169 -8.33895,7.64403 -16.72811,12.47 -22.01413,12.55908 -15.42413,0.25991 -31.71117,-5.78665 -50.56957,-5.90829 -14.60982,-0.0942 -51.8455,9.42645 -49.01756,7.54116 2.82793,-1.88529 18.24354,-30.08378 18.60541,-39.20555 0.35547,-8.96047 -15.13951,-17.20615 -15.08234,-26.1327 0.0607,-9.47327 18.78673,-20.34807 18.53435,-24.60841 -0.21399,-3.61239 -12.57019,-2.30306 -20.17213,-2.15158 -2.05212,0.0409 -0.54726,-6.3136 1.43765,-6.23665 z"
       id="path4403"
       inkscape:connector-curvature="0"
       sodipodi:nodetypes="sssscscssssssss" />
    <path
       style="color:#000000;clip-rule:nonzero;display:inline;overflow:visible;visibility:visible;opacity:1;isolation:auto;mix-blend-mode:normal;color-interpolation:sRGB;color-interpolation-filters:linearRGB;solid-color:#000000;solid-opacity:1;fill:#ffffff;fill-opacity:1;fill-rule:evenodd;stroke:#ffffff;stroke-width:1.48859322px;stroke-linecap:butt;stroke-linejoin:miter;stroke-miterlimit:4;stroke-dasharray:none;stroke-dashoffset:0;stroke-opacity:1;color-rendering:auto;image-rendering:auto;shape-rendering:auto;text-rendering:auto;enable-background:accumulate"
       d="m 253.78576,916.3436 c 4.32836,0.1678 27.93608,-0.99913 28.04167,4.09895 0.2506,12.09926 -20.08927,12.83605 -20.13864,29.47849 -0.014,4.7132 16.03505,17.57361 15.63942,24.69502 -0.47132,8.48382 -15.12072,31.75024 -15.12072,31.75024 0,0 27.84129,-6.92403 39.6295,-7.24145 9.76818,-0.26302 46.01369,12.89865 70.22709,1.36175 -8.33895,7.644 -16.72811,12.47 -22.01413,12.559 -15.42413,0.26 -31.71117,-5.7866 -50.56957,-5.9082 -14.60982,-0.094 -51.8455,9.4264 -49.01756,7.5411 2.82793,-1.8853 18.24354,-30.08378 18.60541,-39.20555 0.35547,-8.96047 -15.13951,-17.20615 -15.08234,-26.1327 0.0607,-9.47327 18.78673,-20.34807 18.53435,-24.60842 -0.21399,-3.61239 -12.57019,-2.30306 -20.17213,-2.15158 -2.05212,0.0409 -0.54726,-6.3136 1.43765,-6.23665 z"
       id="path4403-3"
       inkscape:connector-curvature="0"
       sodipodi:nodetypes="sssscscssssssss" />
    <path
       style="fill:#ffffff;fill-opacity:1;fill-rule:evenodd;stroke:#ffffff;stroke-width:0.53571898px;stroke-linecap:butt;stroke-linejoin:miter;stroke-opacity:1"
       d="m 301.89474,743.96999 c 0.1732,-3.59354 -9.84608,-2.86042 -9.97097,0.4392 -0.30301,8.00583 -0.0658,16.43486 -1.79497,25.76849 -0.35033,1.89103 12.23924,4.72272 12.1463,-0.0425 -0.078,-4.00059 -0.89361,-15.51633 -0.38036,-26.1652 z"
       id="path4179-1-2"
       inkscape:connector-curvature="0"
       sodipodi:nodetypes="sssss" />
    <path
       style="fill:#ffffff;fill-opacity:1;fill-rule:evenodd;stroke:#ffffff;stroke-width:1px;stroke-linecap:butt;stroke-linejoin:miter;stroke-opacity:1"
       d="m 306.49858,740.6835 c 24.38558,2.08446 63.52653,1.32059 77.31991,-1.16646 -3.49938,16.60823 -2.51264,20.86675 -2.66619,29.99479 -0.0854,5.07638 -11.59035,5.31137 -9.49836,1.16647 3.48846,-6.91173 2.81703,-14.44336 4.33258,-23.66256 -15.404,0.4512 -57.55009,3.10195 -70.98766,1.16646 -4.28843,-0.61769 -2.34411,-7.82726 1.49972,-7.4987 z"
       id="path4200-2"
       inkscape:connector-curvature="0"
       sodipodi:nodetypes="scsscss" />
    <path
       style="fill:#ffffff;fill-opacity:1;fill-rule:evenodd;stroke:#ffffff;stroke-width:1.48859322px;stroke-linecap:butt;stroke-linejoin:miter;stroke-opacity:1"
       d="m 312.6737,761.60708 c 26.13368,0.95248 27.43471,1.29537 51.66381,-0.38598 2.75483,-0.19117 9.99238,6.68455 0.8769,7.01686 -20.17735,0.73559 -23.17152,1.58797 -57.1361,-0.0175 -4.23961,-0.20041 1.30185,-6.73337 4.59539,-6.61333 z"
       id="path4196-9-1"
       inkscape:connector-curvature="0"
       sodipodi:nodetypes="sssss" />
    <path
       style="fill:#ffffff;fill-opacity:1;fill-rule:evenodd;stroke:#ffffff;stroke-width:0.53571898px;stroke-linecap:butt;stroke-linejoin:miter;stroke-opacity:1"
       d="m 304.67818,781.89323 c 0.1732,-3.59354 -9.84608,-2.86042 -9.97097,0.4392 -0.30301,8.00583 -1.06563,31.76553 -2.7948,41.09916 -0.35033,1.89103 12.23924,4.72272 12.1463,-0.0425 -0.078,-4.00059 0.10622,-30.847 0.61947,-41.49586 z"
       id="path4179-1-2-9"
       inkscape:connector-curvature="0"
       sodipodi:nodetypes="sssss" />
    <path
       style="fill:#ffffff;fill-opacity:1;fill-rule:evenodd;stroke:#ffffff;stroke-width:1px;stroke-linecap:butt;stroke-linejoin:miter;stroke-opacity:1"
       d="m 309.94858,778.94001 c 24.38558,2.08446 54.52809,1.65387 68.32147,-0.83318 -3.49938,16.60823 -3.84574,36.19742 -3.99929,45.32546 -0.0854,5.07638 -11.59035,5.31137 -9.49836,1.16647 3.48846,-6.91173 4.15013,-29.77403 5.66568,-38.99323 -15.404,0.4512 -48.55165,2.76867 -61.98922,0.83318 -4.28843,-0.61769 -2.34411,-7.82726 1.49972,-7.4987 z"
       id="path4200-2-0"
       inkscape:connector-curvature="0"
       sodipodi:nodetypes="scsscss" />
    <path
       style="fill:#ffffff;fill-opacity:1;fill-rule:evenodd;stroke:#ffffff;stroke-width:1.48859322px;stroke-linecap:butt;stroke-linejoin:miter;stroke-opacity:1"
       d="m 311.17396,800.17133 c 26.13368,0.95248 27.43471,1.29537 51.66381,-0.38598 2.75483,-0.19117 9.99238,6.68455 0.8769,7.01686 -20.17735,0.73559 -23.17152,1.58797 -57.1361,-0.0175 -4.23961,-0.20041 1.30185,-6.73337 4.59539,-6.61333 z"
       id="path4196-9-1-7"
       inkscape:connector-curvature="0"
       sodipodi:nodetypes="sssss" />
    <path
       style="fill:#ffffff;fill-opacity:1;fill-rule:evenodd;stroke:#ffffff;stroke-width:1.48859322px;stroke-linecap:butt;stroke-linejoin:miter;stroke-opacity:1"
       d="m 309.50758,820.83442 c 26.13368,0.95248 27.43471,1.29537 51.66381,-0.38598 2.75483,-0.19117 9.99238,6.68455 0.8769,7.01686 -20.17735,0.73559 -23.17152,1.58797 -57.1361,-0.0175 -4.23961,-0.20041 1.30185,-6.73337 4.59539,-6.61333 z"
       id="path4196-9-1-1"
       inkscape:connector-curvature="0"
       sodipodi:nodetypes="sssss" />
    <path
       style="fill:#ffffff;fill-opacity:1;fill-rule:evenodd;stroke:#ffffff;stroke-width:1.48859322px;stroke-linecap:butt;stroke-linejoin:miter;stroke-opacity:1"
       d="m 305.84155,838.49802 c 26.13368,0.95248 27.43471,1.29537 51.66381,-0.38598 2.75483,-0.19117 9.99238,6.68455 0.8769,7.01686 -20.17735,0.73559 -23.17152,1.58797 -57.1361,-0.0175 -4.23961,-0.20041 1.30185,-6.73337 4.59539,-6.61333 z"
       id="path4196-9-1-3"
       inkscape:connector-curvature="0"
       sodipodi:nodetypes="sssss" />
    <path
       style="fill:#ffffff;fill-opacity:1;fill-rule:evenodd;stroke:#ffffff;stroke-width:1px;stroke-linecap:butt;stroke-linejoin:miter;stroke-opacity:1"
       d="m 331.11127,856.41559 c 0.40231,-8.80228 2.78767,-83.50289 2.16628,-100.31591 -0.13513,-3.65613 9.32598,-1.76663 9.16508,0.83318 -0.8959,14.47577 -2.40121,76.60911 -4.58254,99.14945 -0.12497,1.29144 -6.78604,1.14761 -6.74882,0.33328 z"
       id="path4202-4"
       inkscape:connector-curvature="0"
       sodipodi:nodetypes="sssss" />
    <path
       style="fill:#ffffff;fill-opacity:1;fill-rule:evenodd;stroke:#ffffff;stroke-width:0.90353376px;stroke-linecap:butt;stroke-linejoin:miter;stroke-opacity:1"
       d="m 311.55078,910.95264 c -17.46487,3.11917 -17.63751,-31.996 -17.63751,-31.996 16.12405,16.3741 33.88598,29.09409 17.63751,31.996 z"
       id="path3362-1-8"
       inkscape:connector-curvature="0"
       sodipodi:nodetypes="scs" />
    <path
       style="fill:#ffffff;fill-opacity:1;fill-rule:evenodd;stroke:#ffffff;stroke-width:0.90353376px;stroke-linecap:butt;stroke-linejoin:miter;stroke-opacity:1"
       d="m 355.00016,910.95264 c 17.46487,3.11917 17.63751,-31.996 17.63751,-31.996 -16.12405,16.3741 -33.88598,29.09409 -17.63751,31.996 z"
       id="path3362-1-3"
       inkscape:connector-curvature="0"
       sodipodi:nodetypes="scs" />
    <path
       style="fill:#ffffff;fill-opacity:1;fill-rule:evenodd;stroke:#ffffff;stroke-width:1.48859322px;stroke-linecap:butt;stroke-linejoin:miter;stroke-opacity:1"
       d="m 297.00975,912.24759 c 26.13368,0.95248 46.43141,1.62865 70.66051,-0.0527 2.75483,-0.19117 9.99238,6.68455 0.8769,7.01686 -20.17735,0.73559 -42.16822,1.25469 -76.1328,-0.35083 -4.23961,-0.20041 1.30185,-6.73337 4.59539,-6.61334 z"
       id="path4196-9-69"
       inkscape:connector-curvature="0"
       sodipodi:nodetypes="sssss" />
    <path
       style="fill:#ffffff;fill-opacity:1;fill-rule:evenodd;stroke:#ffffff;stroke-width:1.48859322px;stroke-linecap:butt;stroke-linejoin:miter;stroke-opacity:1"
       d="m 295.0101,935.91015 c 26.13368,0.95248 46.43141,1.62865 70.66051,-0.0527 2.75483,-0.19117 9.99238,6.68455 0.8769,7.01686 -20.17735,0.73559 -42.16822,1.25469 -76.1328,-0.35083 -4.23961,-0.20041 1.30185,-6.73337 4.59539,-6.61334 z"
       id="path4196-9-4"
       inkscape:connector-curvature="0"
       sodipodi:nodetypes="sssss" />
    <path
       style="fill:#ffffff;fill-opacity:1;fill-rule:evenodd;stroke:#ffffff;stroke-width:1px;stroke-linecap:butt;stroke-linejoin:miter;stroke-opacity:1"
       d="m 282.01711,994.82879 c 18.31258,-19.64272 41.25934,-46.98112 42.7589,-71.57096 0.2227,-3.65184 9.2569,-1.76999 9.16508,0.83318 -0.66024,18.71767 -26.26187,54.4626 -42.11156,70.40448 -0.91476,0.92008 -10.36827,0.92953 -9.81242,0.3333 z"
       id="path4202-4-7"
       inkscape:connector-curvature="0"
       sodipodi:nodetypes="sssss" />
    <path
       style="fill:#ffffff;fill-opacity:1;fill-rule:evenodd;stroke:#ffffff;stroke-width:1px;stroke-linecap:butt;stroke-linejoin:miter;stroke-opacity:1"
       d="m 363.73255,996.82553 c -13.97303,-13.75119 -29.02661,-30.00782 -36.48218,-43.05026 -1.81569,-3.17628 2.56578,-9.76762 3.39137,-7.29713 5.2313,15.65408 22.5789,30.65522 41.37143,49.77843 0.90945,0.92546 -7.69963,1.14073 -8.28062,0.56896 z"
       id="path4202-4-5"
       inkscape:connector-curvature="0"
       sodipodi:nodetypes="sssss"
       inkscape:export-xdpi="101.6"
       inkscape:export-ydpi="101.6" />
    <path
       id="path3362-1-8-2-8"
       style="fill:#ffffff;fill-opacity:1;fill-rule:evenodd;stroke:#ffffff;stroke-width:0.90353376px;stroke-linecap:butt;stroke-linejoin:miter;stroke-opacity:1"
       d="m 142.5366,898.34203 c 17.46487,3.11923 21.63681,-16.99861 21.63681,-16.99861 -15.45749,10.70846 -37.88528,14.09667 -21.63681,16.99861 z m -35.61695,-0.0539 c -17.464877,3.11923 -21.636823,-16.99857 -21.636823,-16.99857 15.457503,10.70846 37.885293,14.09667 21.636823,16.99857 z M 53.149607,786.61419 c 0,0 23.227508,31.26867 35.433071,53.1496 7.013245,12.57266 17.716532,17.71654 35.433072,17.71654 17.71654,0 30.71726,-9.54953 35.43307,-17.71654 10.89488,-18.86814 35.43307,-53.1496 35.43307,-53.1496 0,0 -15.75677,35.5418 -17.71653,53.1496 -2.66624,23.95539 -1.15287,56.94199 0,70.86615 1.46187,17.65611 -18.70905,45.04485 -35.76635,61.53443 -4.72834,4.57097 -10.80691,9.28069 -17.38326,9.33171 -6.77292,0.0525 -13.1628,-4.64212 -18.04982,-9.33171 -17.038031,-16.34975 -37.236294,-43.9472 -35.099787,-61.53443 1.666377,-13.71723 3.336465,-47.81076 0,-70.86615 -2.537419,-17.53388 -17.716536,-53.1496 -17.716536,-53.1496 z"
       inkscape:connector-curvature="0"
       sodipodi:nodetypes="scsscscszscsssssssc" />
  </g>
</svg>
