<?xml version="1.0" encoding="UTF-8" standalone="no"?>
<!-- Created with Inkscape (http://www.inkscape.org/) -->

<svg
   xmlns:dc="http://purl.org/dc/elements/1.1/"
   xmlns:cc="http://creativecommons.org/ns#"
   xmlns:rdf="http://www.w3.org/1999/02/22-rdf-syntax-ns#"
   xmlns:svg="http://www.w3.org/2000/svg"
   xmlns="http://www.w3.org/2000/svg"
   xmlns:sodipodi="http://sodipodi.sourceforge.net/DTD/sodipodi-0.dtd"
   xmlns:inkscape="http://www.inkscape.org/namespaces/inkscape"
   width="256"
   height="160"
   id="svg2"
   version="1.1"
   inkscape:version="0.48.3.1 r9886"
   sodipodi:docname="nightheron.svg"
   inkscape:export-filename="/home/bill/nightheron.png"
   inkscape:export-xdpi="90"
   inkscape:export-ydpi="90">
  <defs
     id="defs4" />
  <sodipodi:namedview
     id="base"
     pagecolor="#ffffff"
     bordercolor="#666666"
     borderopacity="1.0"
     inkscape:pageopacity="0.0"
     inkscape:pageshadow="2"
     inkscape:zoom="5.1625005"
     inkscape:cx="128"
     inkscape:cy="80.000005"
     inkscape:document-units="px"
     inkscape:current-layer="layer1"
     showgrid="false"
     inkscape:window-width="1920"
     inkscape:window-height="1036"
     inkscape:window-x="0"
     inkscape:window-y="0"
     inkscape:window-maximized="1" />
  <metadata
     id="metadata7">
    <rdf:RDF>
      <cc:Work
         rdf:about="">
        <dc:format>image/svg+xml</dc:format>
        <dc:type
           rdf:resource="http://purl.org/dc/dcmitype/StillImage" />
        <dc:title></dc:title>
      </cc:Work>
    </rdf:RDF>
  </metadata>
  <g
     inkscape:label="Layer 1"
     inkscape:groupmode="layer"
     id="layer1"
     transform="translate(0,-892.36218)">
    <rect
       style="fill:#0b0822;fill-opacity:1;stroke:none"
       id="rect3909"
       width="256"
       height="159.99998"
       x="0"
       y="892.36218" />
    <g
       id="g3897"
       transform="matrix(1.0818724,0,0,1.0818724,-6.9833214,-85.37564)">
      <g
         id="g3884">
        <path
           style="fill:#7a7a7a;fill-opacity:1;stroke:#7a7a7a;stroke-width:0.1;stroke-linecap:butt;stroke-linejoin:miter;stroke-miterlimit:4;stroke-opacity:1;stroke-dasharray:none"
           d="m 106.49062,94.235397 c 0,0 -4.1371,0.858738 -10.62862,2.350561 -0.85868,0.24096 -0.923505,1.026991 -0.102198,1.073082 -0.965163,0.564799 -0.914452,1.193269 0.408793,1.124182 -0.844232,0.778927 0.282918,1.058642 1.430776,0.715388 -0.675401,1.30591 6.847289,-1.124182 6.847289,-1.124182 0,0 1.10277,2.447212 1.63517,3.679142 -0.0712,2.18956 0.95765,3.77022 2.14616,5.10991 0.55877,1.39076 1.45478,2.33818 2.55496,3.27035 -0.0571,0.70266 0.10925,1.07295 0.72921,1.36716 7e-5,0.754 0.40251,2.20518 2.44267,2.52674 0.05,1.70162 0.93809,2.16852 2.34683,2.44239 0.0841,1.49904 0.86618,2.06761 1.58912,2.2904 0.22923,1.56287 1.28466,3.20422 2.70321,3.43271 0.0116,1.53705 0.79436,1.6113 1.78315,1.62798 -1.87816,2.00636 -0.92681,3.70094 0.56741,4.19732 -1.05671,1.79138 0.26846,3.71026 1.99099,4.1409 -0.60432,3.00947 2.12744,4.46614 3.32332,4.13716 -0.1573,2.82594 1.8968,4.12916 3.47474,4.39453 0.26132,1.10662 1.98971,4.31929 3.57694,3.06595 1.55628,3.22009 2.84829,3.63189 3.98574,2.14616 2.45584,5.1957 2.96314,5.22977 4.39452,-1.32858 1.2744,5.91579 3.5261,8.6162 4.17229,-0.0354 1.53302,5.28895 4.09349,6.02771 3.49604,-0.0878 1.48235,1.79236 2.18441,1.81605 2.88976,1.61041 0.0287,-3.55898 -0.3271,-6.56275 -0.74013,-9.77937 -0.35314,-2.75019 -1.3355,-8.16175 -1.3355,-8.16175 z"
           id="path3851"
           inkscape:connector-curvature="0"
           transform="translate(0,892.36218)"
           sodipodi:nodetypes="cccccccccccccccccccccccccscc" />
        <path
           style="fill:#b46118;fill-opacity:1;stroke:#b36218;stroke-width:0.1;stroke-linecap:butt;stroke-linejoin:miter;stroke-miterlimit:4;stroke-opacity:1;stroke-dasharray:none"
           d="m 107.92965,96.585891 c -0.9143,0.944534 -2.37563,1.615552 -4.06005,2.175026 -3.75241,0.988151 -5.04776,1.733703 -5.896735,0.870011 -0.241669,0.200878 -3.045037,0.388632 -4.833392,-0.09667 -2.674231,-0.241322 -2.490739,3.262562 -2.223361,2.223362 -0.223559,-0.22265 0.93512,-1.37534 1.788356,-1.20835 0.174616,0.31308 0.570878,0.58184 0.145001,1.01502 -1.137101,0.35874 -3.486942,1.23598 -7.491758,2.51336 0.290004,0.0483 1.546686,0.0483 1.256682,0.24167 -0.290003,0.19333 -1.35335,0.67667 -1.063346,0.62834 0.290003,-0.0483 1.643353,-0.145 1.643353,-0.145 0.438795,-0.64919 1.043962,-0.79928 1.740021,-0.67668 2.391584,-0.13517 4.189807,-0.41867 6.090075,-0.67667 4.019989,-0.93838 7.899874,-1.94681 11.406804,-3.14171 3.10342,-0.703952 4.95139,-1.293772 5.22007,-1.74002 z"
           id="path3874"
           inkscape:connector-curvature="0"
           transform="translate(0,892.36218)"
           sodipodi:nodetypes="cccccccccccccccc" />
        <path
           style="fill:#ffffff;fill-opacity:1;stroke:#ffffff;stroke-width:0.1;stroke-linecap:butt;stroke-linejoin:miter;stroke-miterlimit:4;stroke-opacity:1;stroke-dasharray:none"
           d="m 111.57864,91.39269 -5.75963,0.959938 c -3.33155,1.462428 -6.760986,2.826965 -10.213079,4.168848 3.689924,-0.596925 7.386929,-1.189129 10.721279,-2.023105 -0.62945,1.324963 -0.078,2.327853 1.29874,3.10568 0.76281,0.784184 1.81982,1.156486 2.87982,1.524607 0.72971,0.790905 1.60862,1.488562 2.82334,1.976342 1.21388,1.4276 2.44895,2.61159 3.78329,2.65395 1.36752,1.54289 2.68335,3.16701 4.46088,4.06561 0.0375,0.96039 1.43902,1.42506 1.41168,1.46814 -0.68005,1.07148 -0.25498,2.21756 1.12933,2.76688 -0.67263,1.40729 0.77285,2.51559 2.14575,3.04922 0.227,1.41132 1.02898,2.64573 3.61388,3.33155 0.67424,1.2402 1.69474,2.25773 3.33155,2.65394 0.52185,1.59644 3.3452,3.65369 4.17855,3.21862 0.46899,2.2561 2.35743,4.0054 3.95269,2.14574 0.50873,2.36318 2.82411,4.43568 3.89621,1.12934 1.62268,1.9585 3.31188,4.75503 4.34796,-0.67761 2.35893,1.78998 4.06061,2.37499 3.16214,-1.80694 -0.15866,0.23799 2.78922,1.4911 3.50095,0.79054 -0.99876,-5.61218 -1.1277,-7.98404 -2.20221,-11.85805 -1.06443,-3.83768 -3.32331,-7.33808 -3.89621,-8.86531 -0.48872,-1.30282 -0.77026,-2.61598 -0.67761,-4.40442 1.16672,-3.132964 6.13881,-0.71089 9.31704,0.847 l 2.20221,-2.541009 c -1.01919,-1.071015 -1.87038,-2.254027 -2.71041,-3.444482 0,0 -7.90537,-4.517354 -8.1877,-4.630287 -0.28234,-0.112934 -5.30789,-1.016405 -5.30789,-1.016405 l -2.58778,-1.80467 c -0.75125,-0.848267 -1.97027,-1.552609 -3.51179,-2.157718 l -16.20487,2.437781 z"
           id="path3853"
           inkscape:connector-curvature="0"
           transform="translate(0,892.36218)"
           sodipodi:nodetypes="cccccccccsccccccccccssccccsccccc" />
        <path
           style="fill:#000000;fill-opacity:1;stroke:#000000;stroke-width:0.1;stroke-linecap:butt;stroke-linejoin:miter;stroke-miterlimit:4;stroke-opacity:1;stroke-dasharray:none"
           d="m 141.07713,87.162034 c 1.56504,1.010437 1.40631,1.414654 3.29757,2.273596 1.63768,0.743777 7.0408,0.381219 9.98486,2.081649 2.65871,1.535616 4.65725,5.115917 4.65725,5.115917 0,0 -1.78379,-1.980033 -3.06955,-2.328625 -0.62033,-0.168183 -1.44657,0.882056 -1.44657,0.882056 0,0 -3.45192,-2.334445 -5.01007,-3.104833 -0.6482,0.0363 -0.70384,0.532036 -1.05847,0.635079 -0.66358,-0.648233 -1.19521,0.0793 -2.04637,0.564515 -0.52856,-1.175594 -1.01598,-1.963429 -1.9758,-2.822575 -0.92934,-0.552141 -2.29334,-0.564514 -2.29334,-0.564514 z"
           id="path3841"
           inkscape:connector-curvature="0"
           transform="translate(0,892.36218)"
           sodipodi:nodetypes="csscsccccccc" />
        <path
           style="fill:#000000;fill-opacity:1;stroke:#000000;stroke-width:0.1;stroke-linecap:butt;stroke-linejoin:miter;stroke-miterlimit:4;stroke-opacity:1;stroke-dasharray:none"
           d="m 140.15979,86.65176 c -1.70594,-0.830749 -3.51433,-1.566044 -5.43602,-1.631688 -2.49136,-0.0851 -7.08577,1.210556 -10.60104,2.298627 -5.94376,1.839754 -10.90359,3.593472 -18.0292,4.833659 -0.0468,0.456858 -0.0815,0.650816 0.42339,0.952619 6.75339,-1.522836 15.86601,-3.556197 18.8054,-4.092733 2.72912,-0.498155 4.86203,-1.412354 9.30895,-1.397942 2.48899,0.0081 3.41016,0.383105 3.78074,0.657016 0.1617,0.144496 0.14113,0.635079 0.14113,0.635079 0,0 0.41345,-0.113976 0.52646,-0.610367 0.18731,-0.822723 -1.0231,-0.898027 -2.21195,-1.794372 1.0366,-0.136829 1.49177,0.09032 2.39113,0.887602 z"
           id="path3843"
           inkscape:connector-curvature="0"
           transform="translate(0,892.36218)"
           sodipodi:nodetypes="cssccssccsccc" />
        <path
           style="fill:#000000;fill-opacity:1;stroke:#000000;stroke-width:0.1;stroke-linecap:butt;stroke-linejoin:miter;stroke-miterlimit:4;stroke-opacity:1;stroke-dasharray:none"
           d="m 154.93538,95.293421 c 0.0559,0 1.33279,-0.221051 1.78809,0.167636 0.42776,0.365177 0.41909,1.634428 0.41909,1.634428 0,0 -1.25447,0.102453 -1.69031,-0.265421 -0.41297,-0.348573 -0.51687,-1.536642 -0.51687,-1.536643 z"
           id="path3845"
           inkscape:connector-curvature="0"
           transform="translate(0,892.36218)"
           sodipodi:nodetypes="cacac" />
        <path
           style="fill:#000000;fill-opacity:1;stroke:#000000;stroke-width:0.1;stroke-linecap:butt;stroke-linejoin:miter;stroke-miterlimit:4;stroke-opacity:1;stroke-dasharray:none"
           d="m 160.76065,98.72991 c 0,0 3.05064,2.74595 4.30259,4.35847 0.98633,1.27041 2.48657,4.13497 2.48657,4.13497 0,0 -2.84233,-2.14515 -4.35848,-3.07329 -1.7054,-1.04399 -5.30839,-2.79389 -5.30839,-2.79389 z"
           id="path3847"
           inkscape:connector-curvature="0"
           transform="translate(0,892.36218)"
           sodipodi:nodetypes="cacacc" />
      </g>
    </g>
    <path
       sodipodi:type="arc"
       style="fill:#fcff09;fill-opacity:1;stroke:#fcff09;stroke-width:0.1;stroke-miterlimit:4;stroke-opacity:1;stroke-dasharray:none"
       id="path3907"
       sodipodi:cx="139.52115"
       sodipodi:cy="40.743679"
       sodipodi:rx="31.636457"
       sodipodi:ry="31.636457"
       d="m 171.15761,40.743679 a 31.636457,31.636457 0 1 1 -63.27292,0 31.636457,31.636457 0 1 1 63.27292,0 z"
       transform="matrix(1.0094969,0,0,1.0094969,-12.84617,891.23156)" />
  </g>
</svg>
