<?xml version='1.0' encoding='ascii'?>
<svg xmlns="http://www.w3.org/2000/svg" height="540" version="1.1" width="960">
    <g id="RenderLayer_LineSet" inkscape:groupmode="lineset" inkscape:label="RenderLayer_LineSet" xmlns:inkscape="http://www.inkscape.org/namespaces/inkscape">
        <g id="strokes" inkscape:groupmode="layer" inkscape:label="strokes" xmlns:inkscape="http://www.inkscape.org/namespaces/inkscape">
            <path d=" M 798.745, 367.011 801.054, 357.281 803.362, 347.551 805.671, 337.821 807.979, 328.091 809.422, 322.010 811.001, 312.136 812.581, 302.261 814.160, 292.387 815.740, 282.512 817.319, 272.638 818.899, 262.763 820.478, 252.889 822.058, 243.014 823.637, 233.140 825.217, 223.265 825.911, 218.925 821.855, 209.785 817.799, 200.644 813.742, 191.504 810.147, 183.401 802.593, 176.849 795.039, 170.296 787.485, 163.743 779.931, 157.191 775.064, 152.969 766.140, 148.456 757.216, 143.944 748.292, 139.431 739.368, 134.918 730.444, 130.406 726.284, 128.302 716.771, 125.218 707.258, 122.135 697.745, 119.052 688.232, 115.969 678.719, 112.885 669.207, 109.802 668.247, 109.491 658.451, 107.483 648.655, 105.474 638.859, 103.466 629.063, 101.458 619.266, 99.449 609.470, 97.441 604.268, 96.374 594.332, 95.249 584.395, 94.124 574.459, 92.998 564.522, 91.873 554.586, 90.748 544.649, 89.622 536.782, 88.731 526.788, 88.394 516.794, 88.057 506.799, 87.720 496.805, 87.383 486.811, 87.046 476.816, 86.708 467.658, 86.399 457.667, 86.822 447.676, 87.244 437.684, 87.666 427.693, 88.089 417.702, 88.511 407.711, 88.934 398.489, 89.323 388.563, 90.534 378.637, 91.746 368.710, 92.957 358.784, 94.168 348.857, 95.379 338.931, 96.590 330.885, 97.572 321.107, 99.667 311.329, 101.763 301.551, 103.859 291.773, 105.955 281.996, 108.050 272.218, 110.146 266.753, 111.317 257.270, 114.491 247.787, 117.665 238.304, 120.839 228.821, 124.013 219.338, 127.187 209.855, 130.361 208.602, 130.781 199.729, 135.391 190.855, 140.001 181.981, 144.612 173.107, 149.222 164.234, 153.833 159.854, 156.108 152.397, 162.770 144.939, 169.432 137.482, 176.095 130.024, 182.757 125.094, 187.161 121.250, 196.392 117.406, 205.624 113.562, 214.856 110.098, 223.175 111.787, 233.031 113.476, 242.887 115.165, 252.744 116.855, 262.600 118.544, 272.456 120.233, 282.313 121.922, 292.169 123.612, 302.025 125.301, 311.881 126.990, 321.738 127.882, 326.941 130.451, 336.605 133.021, 346.269 135.590, 355.934 138.159, 365.598 139.901, 372.150 146.754, 379.433 153.607, 386.715 160.459, 393.998 167.312, 401.281 174.165, 408.564 181.018, 415.847 181.876, 416.759 190.735, 421.397 199.595, 426.036 208.454, 430.674 217.313, 435.312 226.172, 439.951 235.031, 444.589 243.891, 449.228 252.750, 453.866 255.363, 455.234 265.043, 457.744 274.723, 460.253 284.403, 462.763 294.083, 465.272 303.763, 467.782 313.443, 470.292 323.123, 472.801 332.803, 475.311 342.483, 477.820 352.163, 480.330 355.957, 481.313 365.930, 482.050 375.902, 482.787 385.875, 483.525 395.848, 484.262 405.821, 484.999 415.794, 485.736 425.766, 486.473 435.739, 487.210 445.712, 487.947 455.685, 488.684 465.658, 489.422 472.222, 489.907 482.179, 488.984 492.136, 488.060 502.093, 487.137 512.051, 486.214 522.008, 485.291 531.965, 484.368 541.923, 483.445 551.880, 482.521 561.837, 481.598 571.794, 480.675 581.752, 479.752 587.902, 479.182 597.531, 476.483 607.160, 473.784 616.789, 471.086 626.418, 468.387 636.047, 465.688 645.676, 462.990 655.305, 460.291 664.934, 457.592 674.563, 454.893 684.192, 452.195 686.977, 451.414 695.733, 446.584 704.490, 441.755 713.246, 436.925 722.002, 432.095 730.759, 427.265 739.515, 422.436 748.271, 417.606 757.028, 412.776 758.550, 411.936 765.218, 404.484 771.886, 397.031 778.554, 389.579 785.222, 382.126 791.889, 374.674 798.745, 367.011 " fill="none" stroke="rgb(0, 0, 0)" stroke-linecap="butt" stroke-linejoin="round" stroke-opacity="1.0" stroke-width="3.0" />
            <path d=" M 110.098, 223.175 112.852, 232.788 115.606, 242.401 118.360, 252.015 121.114, 261.628 121.309, 262.312 128.726, 269.019 136.143, 275.727 143.560, 282.434 150.976, 289.142 158.393, 295.850 164.346, 301.234 173.502, 305.255 182.658, 309.276 191.814, 313.297 200.970, 317.318 210.126, 321.339 219.282, 325.360 228.438, 329.381 237.594, 333.402 241.347, 335.050 251.121, 337.165 260.895, 339.279 270.669, 341.393 280.443, 343.507 290.217, 345.622 299.991, 347.736 309.765, 349.850 319.539, 351.964 329.313, 354.079 339.087, 356.193 347.913, 358.102 357.895, 358.717 367.876, 359.331 377.857, 359.945 387.838, 360.560 397.819, 361.174 407.800, 361.788 417.781, 362.402 427.762, 363.017 437.743, 363.631 447.725, 364.245 457.706, 364.860 467.687, 365.474 471.711, 365.722 481.681, 364.952 491.652, 364.182 501.622, 363.413 511.592, 362.643 521.563, 361.874 531.533, 361.104 541.503, 360.334 551.474, 359.565 561.444, 358.795 571.414, 358.025 581.385, 357.256 591.355, 356.486 594.877, 356.214 604.615, 353.938 614.352, 351.662 624.089, 349.385 633.827, 347.109 643.564, 344.833 653.302, 342.556 663.039, 340.280 672.777, 338.004 682.514, 335.727 692.252, 333.451 699.817, 331.682 708.894, 327.486 717.970, 323.289 727.047, 319.092 736.124, 314.896 745.201, 310.699 754.277, 306.502 763.354, 302.306 772.431, 298.109 774.805, 297.011 782.054, 290.123 789.303, 283.234 796.552, 276.346 803.801, 269.457 811.050, 262.569 816.018, 257.847 818.482, 248.155 820.945, 238.463 823.408, 228.771 825.911, 218.925 " fill="none" stroke="rgb(0, 0, 0)" stroke-linecap="butt" stroke-linejoin="round" stroke-opacity="1.0" stroke-width="3.0" />
            <path d=" M 642.091, 295.052 632.313, 297.146 622.535, 299.240 612.756, 301.334 602.978, 303.428 593.200, 305.522 583.421, 307.616 573.643, 309.710 563.865, 311.804 562.425, 312.113 552.451, 312.824 542.476, 313.535 532.501, 314.246 522.527, 314.957 512.552, 315.669 502.577, 316.380 492.603, 317.091 482.628, 317.802 472.653, 318.513 471.027, 318.629 461.044, 318.062 451.060, 317.494 441.076, 316.926 431.092, 316.359 421.108, 315.791 411.124, 315.223 401.140, 314.656 391.156, 314.088 381.173, 313.520 379.249, 313.411 369.440, 311.466 359.631, 309.521 349.822, 307.576 340.013, 305.632 330.203, 303.687 320.394, 301.742 310.585, 299.797 300.776, 297.852 298.573, 297.415 289.270, 293.748 279.967, 290.081 270.663, 286.414 261.360, 282.747 252.057, 279.080 242.753, 275.413 237.571, 273.371 229.636, 267.284 221.702, 261.198 213.767, 255.112 205.832, 249.026 200.333, 244.807 " fill="none" stroke="rgb(0, 0, 0)" stroke-linecap="butt" stroke-linejoin="round" stroke-opacity="1.0" stroke-width="3.0" />
            <path d=" M 642.091, 295.052 651.329, 291.223 660.568, 287.395 669.806, 283.567 679.044, 279.739 688.282, 275.910 697.520, 272.082 701.775, 270.319 709.573, 264.059 717.372, 257.800 725.170, 251.540 732.969, 245.281 737.720, 241.468 741.601, 232.252 745.483, 223.036 749.365, 213.820 750.222, 211.787 747.459, 202.176 744.696, 192.565 742.170, 183.774 735.113, 176.689 728.057, 169.603 721.000, 162.518 717.539, 159.042 708.788, 154.203 700.037, 149.364 691.286, 144.525 682.535, 139.686 680.348, 138.477 " fill="none" stroke="rgb(0, 0, 0)" stroke-linecap="butt" stroke-linejoin="round" stroke-opacity="1.0" stroke-width="3.0" />
            <path d=" M 680.348, 138.477 670.809, 141.478 661.270, 144.479 651.731, 147.480 642.192, 150.482 632.653, 153.483 623.114, 156.484 613.575, 159.485 604.036, 162.486 594.497, 165.488 584.958, 168.489 575.419, 171.490 565.880, 174.491 556.341, 177.492 546.802, 180.494 537.263, 183.495 527.724, 186.496 517.193, 189.809 " fill="none" stroke="rgb(0, 0, 0)" stroke-linecap="butt" stroke-linejoin="round" stroke-opacity="1.0" stroke-width="3.0" />
            <path d=" M 469.092, 185.273 479.048, 186.212 489.004, 187.151 498.960, 188.090 508.916, 189.029 517.193, 189.809 524.840, 196.253 532.487, 202.697 540.134, 209.140 547.781, 215.584 555.429, 222.028 563.076, 228.471 570.723, 234.915 578.370, 241.359 586.017, 247.802 593.664, 254.246 601.311, 260.690 608.959, 267.134 616.606, 273.577 624.253, 280.021 631.900, 286.465 639.547, 292.908 642.091, 295.052 633.113, 290.649 624.134, 286.245 615.156, 281.842 606.178, 277.439 597.199, 273.036 588.221, 268.632 579.242, 264.229 570.264, 259.826 561.286, 255.423 552.307, 251.019 543.329, 246.616 534.351, 242.213 525.372, 237.810 516.394, 233.406 507.415, 229.003 498.437, 224.600 489.459, 220.197 480.480, 215.793 471.502, 211.390 462.523, 206.987 456.083, 203.828 " fill="none" stroke="rgb(0, 0, 0)" stroke-linecap="butt" stroke-linejoin="round" stroke-opacity="1.0" stroke-width="3.0" />
            <path d=" M 353.908, 112.181 363.827, 110.910 373.746, 109.639 383.665, 108.368 393.583, 107.097 403.502, 105.826 410.018, 104.991 420.009, 104.549 429.999, 104.107 439.989, 103.664 449.979, 103.222 459.969, 102.780 467.890, 102.429 477.884, 102.782 487.878, 103.135 497.872, 103.488 507.865, 103.841 517.859, 104.195 525.745, 104.473 535.675, 105.654 545.605, 106.835 555.535, 108.016 565.465, 109.197 575.395, 110.377 581.815, 111.141 591.588, 113.257 601.361, 115.374 611.135, 117.491 620.908, 119.607 630.682, 121.724 634.135, 122.472 643.584, 125.744 653.034, 129.017 662.483, 132.289 671.932, 135.562 680.348, 138.477 670.457, 139.951 660.567, 141.424 650.676, 142.898 640.785, 144.372 630.894, 145.846 621.003, 147.320 611.113, 148.794 601.222, 150.267 591.331, 151.741 581.440, 153.215 571.549, 154.689 561.659, 156.163 551.768, 157.637 541.877, 159.110 531.986, 160.584 522.095, 162.058 512.205, 163.532 502.314, 165.006 492.423, 166.479 481.085, 168.169 " fill="none" stroke="rgb(0, 0, 0)" stroke-linecap="butt" stroke-linejoin="round" stroke-opacity="1.0" stroke-width="3.0" />
            <path d=" M 200.333, 244.807 196.187, 235.707 192.041, 226.607 187.895, 217.507 186.789, 215.078 189.300, 205.399 191.812, 195.719 194.131, 186.782 201.068, 179.579 208.005, 172.376 214.942, 165.174 218.358, 161.626 227.050, 156.681 235.742, 151.736 244.434, 146.791 253.125, 141.845 255.376, 140.565 264.791, 137.196 274.206, 133.826 283.621, 130.456 293.036, 127.087 301.556, 124.038 311.309, 121.829 321.062, 119.620 330.815, 117.411 340.568, 115.202 350.321, 112.993 353.908, 112.181 " fill="none" stroke="rgb(0, 0, 0)" stroke-linecap="butt" stroke-linejoin="round" stroke-opacity="1.0" stroke-width="3.0" />
            <path d=" M 469.092, 185.273 463.351, 193.461 457.610, 201.649 456.083, 203.828 446.208, 205.410 436.334, 206.992 426.460, 208.574 416.586, 210.156 406.712, 211.739 396.838, 213.321 386.964, 214.903 377.090, 216.485 367.216, 218.067 357.342, 219.649 347.468, 221.231 337.594, 222.813 327.720, 224.396 317.846, 225.978 307.972, 227.560 298.098, 229.142 288.224, 230.724 278.350, 232.306 268.476, 233.888 258.602, 235.470 248.727, 237.053 238.853, 238.635 228.979, 240.217 219.105, 241.799 209.231, 243.381 200.333, 244.807 209.940, 242.034 219.548, 239.260 229.156, 236.487 238.764, 233.713 248.371, 230.940 257.979, 228.167 267.587, 225.393 277.194, 222.620 286.802, 219.846 296.410, 217.073 306.018, 214.300 315.625, 211.526 325.233, 208.753 334.841, 205.979 344.449, 203.206 354.056, 200.433 363.664, 197.659 373.272, 194.886 382.879, 192.112 392.487, 189.339 402.095, 186.566 411.703, 183.792 421.969, 180.829 " fill="none" stroke="rgb(0, 0, 0)" stroke-linecap="butt" stroke-linejoin="round" stroke-opacity="1.0" stroke-width="3.0" />
            <path d=" M 421.969, 180.829 414.929, 173.727 407.888, 166.626 400.847, 159.525 393.807, 152.423 386.766, 145.322 379.725, 138.221 372.685, 131.119 365.644, 124.018 358.603, 116.917 353.908, 112.181 363.060, 116.210 372.213, 120.239 381.365, 124.269 390.517, 128.298 399.670, 132.327 408.822, 136.356 417.974, 140.385 427.127, 144.415 436.279, 148.444 445.431, 152.473 454.584, 156.502 463.736, 160.531 472.888, 164.561 481.085, 168.169 475.344, 176.357 469.603, 184.545 469.092, 185.273 459.137, 184.334 449.181, 183.395 439.225, 182.456 429.269, 181.517 421.969, 180.829 " fill="none" stroke="rgb(0, 0, 0)" stroke-linecap="butt" stroke-linejoin="round" stroke-opacity="1.0" stroke-width="3.0" />
        </g>
    </g>
</svg>
