<?xml version='1.0' encoding='ascii'?>
<svg xmlns="http://www.w3.org/2000/svg" height="540" version="1.1" width="960">
    <g id="RenderLayer_LineSet" inkscape:groupmode="lineset" inkscape:label="RenderLayer_LineSet" xmlns:inkscape="http://www.inkscape.org/namespaces/inkscape">
        <g id="strokes" inkscape:groupmode="layer" inkscape:label="strokes" xmlns:inkscape="http://www.inkscape.org/namespaces/inkscape">
            <path d=" M 847.462, 233.787 839.375, 227.904 831.289, 222.021 826.025, 218.191 816.147, 216.636 806.269, 215.080 796.390, 213.525 786.512, 211.969 784.563, 211.662 792.498, 217.748 800.432, 223.835 804.923, 227.280 812.858, 233.366 820.793, 239.452 826.719, 243.998 836.611, 245.462 846.503, 246.927 856.395, 248.392 866.287, 249.857 870.385, 250.464 862.298, 244.581 854.212, 238.698 847.462, 233.787 " fill="none" stroke="rgb(0, 0, 0)" stroke-linecap="butt" stroke-linejoin="round" stroke-opacity="1.0" stroke-width="3.0" />
            <path d=" M 876.664, 370.544 885.850, 366.593 895.037, 362.642 900.125, 360.454 891.263, 355.821 882.401, 351.188 873.539, 346.555 864.677, 341.922 855.814, 337.289 846.952, 332.656 838.961, 328.479 829.500, 331.716 821.950, 334.299 821.523, 334.445 814.124, 336.976 804.662, 340.213 795.201, 343.450 787.352, 346.136 796.106, 350.970 803.978, 355.318 807.186, 357.090 815.468, 361.664 820.345, 364.358 829.098, 369.193 837.852, 374.027 846.605, 378.862 851.298, 381.454 860.484, 377.503 869.671, 373.552 876.664, 370.544 " fill="none" stroke="rgb(0, 0, 0)" stroke-linecap="butt" stroke-linejoin="round" stroke-opacity="1.0" stroke-width="3.0" />
            <path d=" M 409.877, 322.091 411.427, 322.630 420.871, 325.919 430.314, 329.208 439.758, 332.497 442.440, 333.431 451.883, 336.720 461.327, 340.009 470.771, 343.298 472.991, 344.071 478.743, 335.891 482.388, 330.709 488.141, 322.529 493.893, 314.349 494.072, 314.095 484.610, 310.857 483.933, 310.625 477.071, 308.276 476.250, 307.995 475.905, 307.877 472.988, 306.879 463.527, 303.641 454.066, 300.402 444.605, 297.164 435.075, 293.902 434.028, 293.544 424.567, 290.305 415.166, 287.088 405.705, 283.849 403.740, 283.177 394.279, 279.938 391.662, 279.043 383.476, 276.241 377.184, 274.087 370.036, 280.577 363.721, 286.310 356.317, 293.032 354.209, 294.945 348.033, 300.552 353.208, 302.354 357.586, 303.879 367.030, 307.168 376.474, 310.457 385.917, 313.746 395.361, 317.035 402.430, 319.497 409.877, 322.091 " fill="none" stroke="rgb(0, 0, 0)" stroke-linecap="butt" stroke-linejoin="round" stroke-opacity="1.0" stroke-width="3.0" />
            <path d=" M 133.629, 124.589 132.222, 134.489 131.294, 141.012 141.186, 142.477 151.078, 143.942 160.971, 145.407 170.863, 146.872 180.755, 148.337 190.647, 149.802 199.659, 151.136 199.451, 144.871 199.383, 142.807 199.116, 134.732 199.112, 134.606 199.088, 133.879 198.964, 130.132 198.909, 128.466 198.608, 119.393 188.730, 117.838 178.852, 116.282 168.974, 114.727 159.095, 113.171 149.217, 111.616 139.339, 110.060 135.775, 109.499 134.367, 119.400 133.629, 124.589 " fill="none" stroke="rgb(0, 0, 0)" stroke-linecap="butt" stroke-linejoin="round" stroke-opacity="1.0" stroke-width="3.0" />
            <path d=" M 309.391, 66.063 299.396, 65.763 289.400, 65.464 279.405, 65.164 278.589, 65.140 287.342, 69.974 296.096, 74.809 304.849, 79.644 306.338, 80.466 316.336, 80.644 326.335, 80.823 336.333, 81.001 337.253, 81.018 347.251, 81.196 357.250, 81.375 366.609, 81.542 357.747, 76.909 348.885, 72.276 340.023, 67.643 338.680, 66.941 328.685, 66.641 318.689, 66.342 309.391, 66.063 " fill="none" stroke="rgb(0, 0, 0)" stroke-linecap="butt" stroke-linejoin="round" stroke-opacity="1.0" stroke-width="3.0" />
            <path d=" M 593.265, 116.931 583.702, 114.007 574.139, 111.083 564.576, 108.159 561.116, 107.101 553.712, 113.823 552.846, 114.610 562.404, 117.548 571.963, 120.486 581.522, 123.424 586.181, 124.856 595.740, 127.794 605.298, 130.732 614.857, 133.670 619.871, 135.211 625.624, 127.032 625.743, 126.862 616.180, 123.938 606.617, 121.014 597.054, 118.090 593.265, 116.931 " fill="none" stroke="rgb(0, 0, 0)" stroke-linecap="butt" stroke-linejoin="round" stroke-opacity="1.0" stroke-width="3.0" />
            <path d=" M 564.631, 475.201 573.678, 470.941 582.725, 466.681 591.772, 462.421 600.820, 458.161 609.867, 453.901 616.624, 450.720 617.299, 450.402 618.399, 449.884 623.248, 447.601 623.754, 447.362 631.711, 443.616 640.758, 439.356 649.805, 435.096 654.047, 433.099 663.094, 428.839 672.141, 424.579 681.188, 420.319 690.236, 416.059 699.283, 411.799 708.330, 407.539 717.378, 403.279 726.425, 399.019 727.440, 398.541 " fill="none" stroke="rgb(0, 0, 0)" stroke-linecap="butt" stroke-linejoin="round" stroke-opacity="1.0" stroke-width="3.0" />
            <path d=" M 622.473, 453.077 627.953, 450.620 637.078, 446.529 646.203, 442.437 655.328, 438.346 664.453, 434.255 673.577, 430.164 682.702, 426.072 691.827, 421.981 700.952, 417.890 710.076, 413.799 719.201, 409.707 728.326, 405.616 737.451, 401.525 743.829, 398.665 " fill="none" stroke="rgb(0, 0, 0)" stroke-linecap="butt" stroke-linejoin="round" stroke-opacity="1.0" stroke-width="3.0" />
            <path d=" M 397.480, 429.791 393.321, 420.697 389.163, 411.603 387.190, 407.288 383.032, 398.194 378.874, 389.099 378.040, 387.276 376.140, 383.120 " fill="none" stroke="rgb(0, 0, 0)" stroke-linecap="butt" stroke-linejoin="round" stroke-opacity="1.0" stroke-width="3.0" />
            <path d=" M 483.068, 468.361 488.463, 459.941 493.857, 451.521 496.342, 447.643 501.737, 439.223 507.131, 430.803 511.480, 424.016 516.875, 415.596 522.270, 407.176 527.154, 399.552 529.989, 395.128 535.384, 386.708 540.403, 378.874 " fill="none" stroke="rgb(0, 0, 0)" stroke-linecap="butt" stroke-linejoin="round" stroke-opacity="1.0" stroke-width="3.0" />
            <path d=" M 338.810, 379.258 333.078, 371.064 331.408, 368.676 331.351, 368.596 325.619, 360.401 319.887, 352.207 316.923, 347.970 311.191, 339.776 305.459, 331.581 299.728, 323.387 295.944, 317.978 290.212, 309.784 288.705, 307.629 282.973, 299.435 277.241, 291.241 271.509, 283.047 265.777, 274.853 263.041, 270.941 " fill="none" stroke="rgb(0, 0, 0)" stroke-linecap="butt" stroke-linejoin="round" stroke-opacity="1.0" stroke-width="3.0" />
            <path d=" M 617.300, 450.562 618.501, 449.964 623.248, 447.601 " fill="none" stroke="rgb(0, 0, 0)" stroke-linecap="butt" stroke-linejoin="round" stroke-opacity="1.0" stroke-width="3.0" />
            <path d=" M 409.868, 436.281 418.383, 431.037 426.897, 425.792 431.462, 422.981 " fill="none" stroke="rgb(0, 0, 0)" stroke-linecap="butt" stroke-linejoin="round" stroke-opacity="1.0" stroke-width="3.0" />
            <path d=" M 462.250, 450.402 456.131, 442.492 455.519, 441.702 452.177, 437.381 446.058, 429.471 439.939, 421.562 437.947, 418.987 " fill="none" stroke="rgb(0, 0, 0)" stroke-linecap="butt" stroke-linejoin="round" stroke-opacity="1.0" stroke-width="3.0" />
            <path d=" M 331.580, 368.558 326.759, 359.797 321.938, 351.036 317.832, 343.575 317.804, 343.523 312.982, 334.762 308.161, 326.001 306.231, 322.494 301.410, 313.733 299.779, 310.769 294.958, 302.008 290.136, 293.247 285.530, 284.876 " fill="none" stroke="rgb(0, 0, 0)" stroke-linecap="butt" stroke-linejoin="round" stroke-opacity="1.0" stroke-width="3.0" />
            <path d=" M 870.673, 276.131 878.763, 270.253 880.159, 269.240 884.067, 260.035 887.975, 250.830 889.825, 246.474 881.639, 240.730 878.515, 238.537 870.330, 232.793 867.563, 230.852 858.140, 227.505 848.716, 224.159 839.293, 220.812 829.870, 217.465 820.446, 214.119 811.023, 210.772 801.599, 207.426 792.176, 204.079 782.753, 200.733 776.815, 198.624 767.895, 194.104 758.975, 189.584 750.055, 185.064 741.135, 180.544 732.215, 176.023 723.295, 171.503 719.073, 169.364 709.831, 165.545 700.589, 161.727 691.347, 157.908 682.105, 154.089 672.862, 150.270 663.620, 146.451 656.035, 143.317 647.622, 137.912 639.208, 132.507 630.795, 127.102 622.381, 121.697 613.552, 116.024 603.986, 113.110 598.244, 111.361 588.678, 108.447 583.010, 106.720 573.038, 105.975 563.065, 105.231 553.093, 104.486 543.121, 103.742 533.149, 102.997 523.176, 102.253 521.925, 102.159 512.143, 100.080 502.362, 98.001 492.580, 95.922 482.799, 93.843 473.017, 91.764 463.236, 89.685 453.825, 87.685 443.930, 86.235 434.036, 84.785 424.142, 83.335 414.247, 81.885 404.353, 80.435 394.459, 78.985 386.950, 77.885 377.282, 75.329 367.614, 72.773 357.946, 70.218 348.278, 67.662 338.610, 65.106 328.942, 62.551 319.275, 59.995 309.607, 57.439 303.794, 55.903 293.801, 55.520 289.436, 55.352 279.444, 54.970 274.731, 54.789 270.411, 63.808 266.091, 72.827 264.923, 75.266 255.095, 77.113 245.267, 78.961 235.439, 80.808 225.611, 82.655 215.902, 84.480 206.996, 89.027 198.090, 93.575 189.183, 98.123 181.033, 102.284 171.060, 103.022 161.087, 103.759 151.114, 104.496 141.142, 105.233 131.169, 105.970 121.196, 106.708 111.223, 107.445 101.250, 108.182 91.278, 108.919 84.938, 109.388 82.822, 116.817 80.616, 124.562 79.617, 134.512 78.618, 144.462 77.619, 154.412 77.505, 155.551 86.670, 159.552 95.834, 163.554 104.999, 167.555 114.163, 171.556 123.328, 175.558 132.492, 179.559 141.657, 183.560 150.822, 187.562 159.986, 191.563 169.151, 195.564 175.591, 198.376 182.601, 205.508 189.612, 212.639 196.622, 219.770 203.632, 226.902 210.642, 234.033 217.653, 241.165 221.805, 245.389 229.619, 250.230 238.119, 255.498 246.619, 260.765 254.845, 265.862 263.041, 270.941 271.541, 276.208 272.840, 277.013 273.634, 277.505 282.134, 282.772 282.481, 282.987 285.530, 284.876 294.030, 290.144 302.531, 295.411 303.244, 295.853 308.272, 304.498 313.300, 313.142 318.328, 321.786 322.413, 328.810 327.441, 337.454 327.660, 337.830 328.502, 339.279 333.530, 347.923 336.293, 352.674 337.575, 354.877 342.603, 363.521 347.631, 372.166 348.136, 373.034 355.111, 375.546 364.519, 378.935 373.927, 382.323 376.140, 383.120 379.398, 384.294 388.807, 387.682 390.536, 388.305 399.944, 391.694 409.352, 395.082 409.552, 395.154 410.984, 395.670 419.095, 394.617 429.012, 393.330 437.768, 392.194 447.685, 390.906 454.763, 389.988 458.986, 389.439 468.903, 388.152 472.889, 387.635 482.805, 386.347 492.722, 385.060 493.111, 385.010 503.028, 383.722 512.945, 382.435 517.325, 381.867 517.976, 381.782 518.304, 381.740 528.221, 380.452 538.137, 379.165 540.392, 378.872 540.403, 378.874 550.282, 380.425 560.161, 381.976 570.040, 383.528 579.919, 385.079 588.815, 386.476 592.348, 387.030 602.227, 388.582 612.106, 390.133 621.985, 391.684 629.050, 392.793 634.366, 393.628 635.903, 393.869 642.181, 394.855 652.060, 396.406 661.012, 397.812 662.527, 398.050 672.527, 398.125 682.527, 398.201 689.786, 398.256 699.786, 398.332 703.926, 398.363 709.868, 398.408 714.322, 398.442 721.861, 398.499 727.440, 398.541 732.058, 398.576 742.058, 398.652 743.829, 398.665 753.829, 398.741 763.127, 398.811 772.797, 401.360 782.466, 403.908 792.136, 406.457 801.806, 409.005 811.476, 411.554 821.146, 414.102 830.815, 416.651 840.485, 419.199 850.155, 421.748 859.825, 424.296 869.495, 426.845 879.164, 429.393 888.834, 431.942 898.504, 434.490 900.894, 435.120 909.638, 430.268 912.469, 428.696 921.213, 423.844 923.606, 422.516 927.865, 413.468 932.123, 404.420 936.381, 395.372 938.014, 391.903 931.193, 384.590 924.372, 377.278 917.551, 369.965 910.729, 362.653 903.908, 355.340 897.087, 348.028 890.266, 340.716 883.445, 333.403 879.271, 328.928 880.604, 319.018 881.936, 309.107 883.269, 299.196 883.444, 297.895 878.383, 289.270 873.322, 280.645 870.673, 276.131 865.612, 267.506 863.675, 264.206 " fill="none" stroke="rgb(0, 0, 0)" stroke-linecap="butt" stroke-linejoin="round" stroke-opacity="1.0" stroke-width="3.0" />
            <path d=" M 643.101, 235.663 653.003, 237.065 662.904, 238.467 672.805, 239.870 682.706, 241.272 692.607, 242.675 702.508, 244.077 712.410, 245.479 719.045, 246.419 728.946, 247.822 733.087, 248.408 735.893, 248.806 742.504, 249.742 752.405, 251.144 762.306, 252.547 772.207, 253.949 773.047, 254.068 781.592, 259.263 790.137, 264.457 798.682, 269.652 807.227, 274.846 814.992, 279.567 815.879, 281.557 817.626, 285.478 818.422, 287.265 822.491, 296.400 822.971, 297.478 827.040, 306.613 828.330, 309.508 " fill="none" stroke="rgb(0, 0, 0)" stroke-linecap="butt" stroke-linejoin="round" stroke-opacity="1.0" stroke-width="3.0" />
            <path d=" M 576.200, 177.188 582.231, 169.212 588.263, 161.236 590.975, 157.649 600.716, 159.909 610.458, 162.169 620.199, 164.430 629.589, 166.609 635.377, 167.951 635.873, 168.066 637.469, 168.437 645.806, 172.035 654.987, 175.998 664.169, 179.961 673.350, 183.924 682.531, 187.887 691.712, 191.850 693.208, 192.495 702.010, 197.242 710.811, 201.988 719.613, 206.735 722.621, 208.356 " fill="none" stroke="rgb(0, 0, 0)" stroke-linecap="butt" stroke-linejoin="round" stroke-opacity="1.0" stroke-width="3.0" />
            <path d=" M 762.507, 214.547 757.778, 213.813 754.450, 213.296 753.287, 213.116 743.406, 211.582 733.524, 210.049 723.642, 208.515 722.621, 208.356 712.739, 206.823 702.857, 205.289 692.975, 203.756 683.094, 202.222 673.212, 200.688 663.330, 199.155 653.449, 197.621 643.567, 196.087 633.112, 194.465 623.230, 192.931 621.836, 192.715 612.744, 191.304 606.543, 190.341 598.402, 189.078 589.774, 184.021 584.581, 180.978 576.200, 177.188 567.722, 173.356 " fill="none" stroke="rgb(0, 0, 0)" stroke-linecap="butt" stroke-linejoin="round" stroke-opacity="1.0" stroke-width="3.0" />
            <path d=" M 610.659, 218.475 612.863, 211.389 613.058, 208.128 613.256, 204.807 " fill="none" stroke="rgb(0, 0, 0)" stroke-linecap="butt" stroke-linejoin="round" stroke-opacity="1.0" stroke-width="3.0" />
            <path d=" M 638.818, 423.305 638.902, 423.065 638.799, 413.066 638.783, 411.582 638.689, 402.506 " fill="none" stroke="rgb(0, 0, 0)" stroke-linecap="butt" stroke-linejoin="round" stroke-opacity="1.0" stroke-width="3.0" />
            <path d=" M 537.473, 400.402 547.439, 401.222 557.405, 402.043 567.371, 402.863 577.338, 403.684 587.304, 404.504 596.349, 405.249 603.713, 412.014 611.076, 418.780 612.652, 420.227 612.395, 427.087 " fill="none" stroke="rgb(0, 0, 0)" stroke-linecap="butt" stroke-linejoin="round" stroke-opacity="1.0" stroke-width="3.0" />
            <path d=" M 847.462, 233.787 855.548, 239.670 863.634, 245.553 870.385, 250.464 860.493, 248.999 850.601, 247.534 840.708, 246.069 830.816, 244.604 826.719, 243.998 818.784, 237.911 810.849, 231.825 804.923, 227.280 796.989, 221.193 789.054, 215.107 784.563, 211.662 794.442, 213.218 804.320, 214.773 814.198, 216.329 824.076, 217.884 826.025, 218.191 834.112, 224.074 842.198, 229.957 847.462, 233.787 " fill="none" stroke="rgb(0, 0, 0)" stroke-linecap="butt" stroke-linejoin="round" stroke-opacity="1.0" stroke-width="3.0" />
            <path d=" M 757.179, 317.281 750.540, 324.759 745.486, 330.452 738.846, 337.930 738.219, 338.637 732.699, 338.424 730.659, 338.345 720.667, 337.960 710.674, 337.575 701.298, 337.214 691.305, 336.829 687.505, 336.682 678.458, 336.334 671.153, 336.052 661.160, 335.667 651.557, 335.297 644.991, 334.183 635.132, 332.510 631.213, 331.844 621.354, 330.171 611.495, 328.498 601.636, 326.824 591.777, 325.151 581.918, 323.478 572.059, 321.804 562.007, 320.098 552.148, 318.425 550.412, 318.130 547.853, 317.696 539.117, 313.467 533.505, 310.750 524.504, 306.393 515.504, 302.036 508.643, 298.715 503.652, 296.298 494.651, 291.941 490.825, 290.089 490.313, 289.841 481.312, 285.483 480.481, 285.081 478.989, 284.359 " fill="none" stroke="rgb(0, 0, 0)" stroke-linecap="butt" stroke-linejoin="round" stroke-opacity="1.0" stroke-width="3.0" />
            <path d=" M 490.825, 290.089 496.856, 282.112 502.888, 274.136 508.920, 266.160 514.951, 258.184 520.983, 250.208 527.014, 242.231 527.595, 241.463 528.787, 241.683 534.161, 242.675 543.995, 244.489 550.040, 245.604 552.677, 245.812 559.401, 246.343 569.370, 247.129 570.337, 247.205 579.031, 252.147 585.798, 255.995 594.492, 260.937 595.247, 261.366 603.941, 266.308 612.634, 271.250 621.328, 276.193 630.021, 281.135 638.715, 286.077 647.408, 291.019 656.102, 295.961 663.679, 300.268 672.372, 305.210 673.872, 306.063 682.566, 311.005 687.611, 313.873 692.863, 316.859 701.556, 321.801 710.423, 326.841 716.937, 330.544 725.631, 335.486 730.659, 338.345 " fill="none" stroke="rgb(0, 0, 0)" stroke-linecap="butt" stroke-linejoin="round" stroke-opacity="1.0" stroke-width="3.0" />
            <path d=" M 832.176, 309.483 828.330, 309.508 818.330, 309.572 808.331, 309.635 803.295, 309.667 793.295, 309.731 783.296, 309.795 783.033, 309.796 780.646, 308.532 775.254, 305.675 768.297, 301.989 759.461, 297.308 750.624, 292.626 741.788, 287.945 732.951, 283.264 724.115, 278.582 722.001, 277.462 716.709, 274.659 709.855, 271.028 701.019, 266.346 699.425, 265.502 690.588, 260.820 681.752, 256.139 672.915, 251.458 664.079, 246.776 655.242, 242.095 646.406, 237.413 643.101, 235.663 634.265, 230.981 625.428, 226.300 617.478, 222.088 610.659, 218.475 609.247, 217.727 607.975, 217.053 606.762, 216.410 " fill="none" stroke="rgb(0, 0, 0)" stroke-linecap="butt" stroke-linejoin="round" stroke-opacity="1.0" stroke-width="3.0" />
            <path d=" M 314.775, 369.227 314.419, 376.598 318.508, 385.724 322.596, 394.850 325.255, 400.784 332.033, 408.136 338.812, 415.487 345.591, 422.839 348.323, 425.802 356.561, 431.471 364.799, 437.140 373.037, 442.809 381.275, 448.478 382.604, 449.392 391.688, 453.573 400.771, 457.755 409.855, 461.936 418.939, 466.118 425.488, 469.133 435.093, 471.915 444.699, 474.696 454.304, 477.478 463.909, 480.260 472.969, 482.883 482.881, 484.211 492.792, 485.540 502.703, 486.868 512.615, 488.196 520.269, 489.222 530.263, 488.870 540.257, 488.518 550.251, 488.166 560.245, 487.813 562.729, 487.726 572.412, 485.227 582.095, 482.728 591.777, 480.229 596.632, 478.976 605.069, 473.608 613.507, 468.241 619.683, 464.313 624.853, 455.753 627.953, 450.620 " fill="none" stroke="rgb(0, 0, 0)" stroke-linecap="butt" stroke-linejoin="round" stroke-opacity="1.0" stroke-width="3.0" />
            <path d=" M 571.161, 438.841 563.890, 445.707 558.740, 450.569 548.741, 450.745 547.693, 450.764 537.694, 450.940 527.696, 451.116 521.600, 451.223 511.699, 449.820 501.798, 448.417 496.342, 447.643 " fill="none" stroke="rgb(0, 0, 0)" stroke-linecap="butt" stroke-linejoin="round" stroke-opacity="1.0" stroke-width="3.0" />
            <path d=" M 619.599, 416.278 614.053, 424.600 612.395, 427.087 609.182, 431.909 599.214, 432.707 589.246, 433.506 584.938, 433.851 576.763, 428.090 568.589, 422.330 560.415, 416.569 552.241, 410.809 544.067, 405.049 537.473, 400.402 529.989, 395.128 " fill="none" stroke="rgb(0, 0, 0)" stroke-linecap="butt" stroke-linejoin="round" stroke-opacity="1.0" stroke-width="3.0" />
            <path d=" M 460.169, 434.041 465.358, 425.493 470.547, 416.944 474.837, 409.877 484.728, 411.348 484.985, 411.386 494.393, 411.394 498.212, 414.215 " fill="none" stroke="rgb(0, 0, 0)" stroke-linecap="butt" stroke-linejoin="round" stroke-opacity="1.0" stroke-width="3.0" />
            <path d=" M 876.664, 370.544 867.477, 374.495 858.291, 378.446 851.298, 381.454 842.544, 376.619 833.791, 371.784 825.037, 366.950 820.345, 364.358 815.468, 361.664 807.186, 357.090 803.978, 355.318 795.224, 350.484 787.352, 346.136 796.814, 342.899 806.275, 339.662 814.124, 336.976 821.523, 334.445 821.950, 334.299 831.412, 331.062 838.961, 328.479 847.823, 333.112 856.685, 337.744 865.547, 342.377 874.410, 347.010 883.272, 351.643 892.134, 356.276 900.125, 360.454 890.938, 364.405 881.752, 368.356 876.664, 370.544 " fill="none" stroke="rgb(0, 0, 0)" stroke-linecap="butt" stroke-linejoin="round" stroke-opacity="1.0" stroke-width="3.0" />
            <path d=" M 490.978, 199.459 483.934, 206.557 476.890, 213.655 470.359, 220.236 463.316, 227.335 456.272, 234.433 449.228, 241.531 442.184, 248.629 435.140, 255.727 428.096, 262.825 424.890, 266.056 415.115, 263.945 412.529, 263.387 402.755, 261.277 401.315, 260.966 391.540, 258.856 381.765, 256.746 377.657, 255.859 372.548, 254.756 370.150, 254.238 366.974, 253.553 357.199, 251.443 347.425, 249.332 345.545, 248.927 336.859, 243.971 334.414, 242.577 325.728, 237.622 318.229, 233.344 309.543, 228.389 300.857, 223.434 292.172, 218.478 283.486, 213.523 274.800, 208.568 273.520, 207.838 266.040, 201.201 258.561, 194.563 251.081, 187.926 243.601, 181.288 242.157, 180.006 234.677, 173.369 230.176, 169.375 " fill="none" stroke="rgb(0, 0, 0)" stroke-linecap="butt" stroke-linejoin="round" stroke-opacity="1.0" stroke-width="3.0" />
            <path d=" M 242.157, 180.006 243.004, 178.992 252.905, 180.395 262.806, 181.797 272.707, 183.200 282.608, 184.602 292.509, 186.004 300.752, 187.172 310.653, 188.574 314.191, 189.075 324.092, 190.478 332.232, 191.631 339.476, 192.657 349.377, 194.059 359.278, 195.462 369.179, 196.864 372.557, 197.342 378.057, 198.121 387.958, 199.524 394.711, 200.480 404.612, 201.883 405.705, 202.038 415.606, 203.440 425.507, 204.842 435.408, 206.245 445.309, 207.647 452.802, 208.708 460.971, 214.477 465.950, 217.994 470.359, 220.236 " fill="none" stroke="rgb(0, 0, 0)" stroke-linecap="butt" stroke-linejoin="round" stroke-opacity="1.0" stroke-width="3.0" />
            <path d=" M 421.194, 420.547 411.386, 418.597 401.578, 416.646 401.325, 416.596 392.973, 411.096 387.190, 407.288 " fill="none" stroke="rgb(0, 0, 0)" stroke-linecap="butt" stroke-linejoin="round" stroke-opacity="1.0" stroke-width="3.0" />
            <path d=" M 437.768, 392.194 441.629, 392.511 447.479, 397.943 448.829, 398.791 " fill="none" stroke="rgb(0, 0, 0)" stroke-linecap="butt" stroke-linejoin="round" stroke-opacity="1.0" stroke-width="3.0" />
            <path d=" M 409.877, 322.091 402.430, 319.497 392.986, 316.208 383.542, 312.919 374.099, 309.630 364.655, 306.341 357.586, 303.879 353.208, 302.354 348.033, 300.552 354.209, 294.945 361.613, 288.224 363.721, 286.310 370.036, 280.577 377.184, 274.087 383.476, 276.241 391.662, 279.043 401.124, 282.281 403.740, 283.177 413.201, 286.415 415.166, 287.088 424.627, 290.326 434.028, 293.544 435.075, 293.902 444.536, 297.140 453.997, 300.379 463.458, 303.617 472.988, 306.879 475.905, 307.877 476.250, 307.995 477.071, 308.276 483.933, 310.625 493.394, 313.864 494.072, 314.095 488.319, 322.275 482.567, 330.455 482.388, 330.709 476.636, 338.889 472.991, 344.071 463.547, 340.782 454.104, 337.493 444.660, 334.204 442.440, 333.431 432.996, 330.142 423.552, 326.853 414.109, 323.564 411.427, 322.630 409.877, 322.091 " fill="none" stroke="rgb(0, 0, 0)" stroke-linecap="butt" stroke-linejoin="round" stroke-opacity="1.0" stroke-width="3.0" />
            <path d=" M 461.694, 156.512 453.079, 160.306 449.544, 165.975 439.663, 164.441 429.781, 162.908 419.899, 161.374 419.148, 161.257 409.266, 159.724 400.852, 158.418 390.970, 156.884 389.933, 156.723 382.201, 155.523 376.794, 154.684 366.912, 153.150 357.031, 151.617 347.149, 150.083 337.267, 148.549 327.386, 147.016 317.504, 145.482 310.302, 144.364 302.910, 143.217 296.479, 142.219 286.598, 140.686 282.940, 140.118 273.058, 138.584 263.177, 137.051 253.295, 135.517 245.437, 134.297 238.861, 127.553 231.880, 120.392 224.900, 113.232 224.212, 112.526 " fill="none" stroke="rgb(0, 0, 0)" stroke-linecap="butt" stroke-linejoin="round" stroke-opacity="1.0" stroke-width="3.0" />
            <path d=" M 133.629, 124.589 135.037, 114.689 135.775, 109.499 145.653, 111.055 155.532, 112.610 165.410, 114.166 175.288, 115.721 185.167, 117.277 195.045, 118.832 198.608, 119.393 198.909, 128.466 198.964, 130.132 199.088, 133.879 199.112, 134.606 199.116, 134.732 199.383, 142.807 199.451, 144.871 199.659, 151.136 189.767, 149.671 179.875, 148.206 169.982, 146.742 160.090, 145.277 150.198, 143.812 140.306, 142.347 131.294, 141.012 132.702, 131.112 133.629, 124.589 " fill="none" stroke="rgb(0, 0, 0)" stroke-linecap="butt" stroke-linejoin="round" stroke-opacity="1.0" stroke-width="3.0" />
            <path d=" M 238.861, 127.553 247.247, 122.105 247.960, 121.642 257.659, 119.205 267.357, 116.769 273.516, 115.221 283.214, 112.784 284.311, 112.509 285.168, 112.294 289.368, 111.238 290.347, 111.333 300.301, 112.293 310.255, 113.254 320.208, 114.214 330.162, 115.175 339.704, 116.095 348.398, 121.038 357.091, 125.980 365.785, 130.922 374.478, 135.864 378.440, 138.116 383.608, 141.054 388.528, 143.850 397.221, 148.793 399.954, 150.346 408.648, 155.288 417.341, 160.230 419.148, 161.257 " fill="none" stroke="rgb(0, 0, 0)" stroke-linecap="butt" stroke-linejoin="round" stroke-opacity="1.0" stroke-width="3.0" />
            <path d=" M 563.817, 126.060 556.773, 133.158 549.729, 140.256 547.049, 142.957 540.006, 150.055 532.962, 157.153 529.018, 161.127 528.445, 161.011 523.205, 159.959 516.244, 158.561 509.310, 157.168 506.236, 156.804 496.305, 155.630 490.809, 154.980 481.972, 150.299 473.136, 145.618 464.299, 140.936 455.463, 136.255 446.626, 131.573 437.790, 126.892 428.953, 122.210 420.117, 117.529 411.280, 112.847 410.117, 112.231 401.281, 107.550 394.812, 104.123 391.322, 102.274 386.446, 99.691 377.609, 95.009 373.605, 92.888 " fill="none" stroke="rgb(0, 0, 0)" stroke-linecap="butt" stroke-linejoin="round" stroke-opacity="1.0" stroke-width="3.0" />
            <path d=" M 309.391, 66.063 319.387, 66.363 329.382, 66.662 338.680, 66.941 347.542, 71.574 356.404, 76.207 365.266, 80.840 366.609, 81.542 356.610, 81.363 346.612, 81.185 337.253, 81.018 327.254, 80.839 317.256, 80.661 307.257, 80.482 306.338, 80.466 297.584, 75.631 288.831, 70.796 280.077, 65.962 278.589, 65.140 288.584, 65.439 298.580, 65.739 308.575, 66.039 309.391, 66.063 " fill="none" stroke="rgb(0, 0, 0)" stroke-linecap="butt" stroke-linejoin="round" stroke-opacity="1.0" stroke-width="3.0" />
            <path d=" M 410.117, 112.231 420.030, 113.549 429.943, 114.866 439.856, 116.183 449.769, 117.501 456.138, 118.347 465.932, 120.369 475.725, 122.392 485.518, 124.414 495.312, 126.436 505.105, 128.459 511.655, 129.811 517.306, 130.978 521.336, 132.601 521.369, 132.615 526.604, 134.723 535.880, 138.459 545.156, 142.194 547.049, 142.957 " fill="none" stroke="rgb(0, 0, 0)" stroke-linecap="butt" stroke-linejoin="round" stroke-opacity="1.0" stroke-width="3.0" />
            <path d=" M 593.265, 116.931 602.828, 119.855 612.391, 122.779 621.954, 125.704 625.743, 126.862 619.991, 135.042 619.871, 135.211 610.313, 132.273 600.754, 129.335 591.195, 126.397 586.181, 124.856 576.622, 121.918 567.064, 118.980 557.505, 116.042 552.846, 114.610 560.250, 107.888 561.116, 107.101 570.679, 110.025 580.242, 112.949 589.805, 115.873 593.265, 116.931 " fill="none" stroke="rgb(0, 0, 0)" stroke-linecap="butt" stroke-linejoin="round" stroke-opacity="1.0" stroke-width="3.0" />
            <path d=" M 317.804, 343.523 317.835, 343.562 319.705, 345.869 " fill="none" stroke="rgb(0, 0, 0)" stroke-linecap="butt" stroke-linejoin="round" stroke-opacity="1.0" stroke-width="3.0" />
            <path d=" M 288.705, 307.629 293.499, 313.544 " fill="none" stroke="rgb(0, 0, 0)" stroke-linecap="butt" stroke-linejoin="round" stroke-opacity="1.0" stroke-width="3.0" />
            <path d=" M 317.835, 343.562 317.832, 343.575 " fill="none" stroke="rgb(0, 0, 0)" stroke-linecap="butt" stroke-linejoin="round" stroke-opacity="1.0" stroke-width="3.0" />
            <path d=" M 297.362, 307.741 291.124, 299.924 284.887, 292.108 278.649, 284.292 274.529, 279.129 272.840, 277.013 " fill="none" stroke="rgb(0, 0, 0)" stroke-linecap="butt" stroke-linejoin="round" stroke-opacity="1.0" stroke-width="3.0" />
            <path d=" M 322.770, 339.579 319.504, 335.487 313.267, 327.671 307.029, 319.855 300.792, 312.038 299.779, 310.769 " fill="none" stroke="rgb(0, 0, 0)" stroke-linecap="butt" stroke-linejoin="round" stroke-opacity="1.0" stroke-width="3.0" />
            <path d=" M 293.499, 313.544 295.944, 317.978 " fill="none" stroke="rgb(0, 0, 0)" stroke-linecap="butt" stroke-linejoin="round" stroke-opacity="1.0" stroke-width="3.0" />
            <path d=" M 273.634, 277.505 274.529, 279.129 " fill="none" stroke="rgb(0, 0, 0)" stroke-linecap="butt" stroke-linejoin="round" stroke-opacity="1.0" stroke-width="3.0" />
            <path d=" M 229.619, 250.230 235.438, 258.363 241.258, 266.495 247.077, 274.627 252.897, 282.759 258.716, 290.891 264.536, 299.024 270.355, 307.156 276.175, 315.288 281.995, 323.420 287.814, 331.552 293.634, 339.685 299.453, 347.817 305.273, 355.949 311.092, 364.081 314.775, 369.227 320.594, 377.359 326.414, 385.492 327.631, 387.193 " fill="none" stroke="rgb(0, 0, 0)" stroke-linecap="butt" stroke-linejoin="round" stroke-opacity="1.0" stroke-width="3.0" />
            <path d=" M 300.752, 187.172 304.292, 196.524 307.832, 205.877 311.372, 215.229 314.913, 224.581 318.229, 233.344 " fill="none" stroke="rgb(0, 0, 0)" stroke-linecap="butt" stroke-linejoin="round" stroke-opacity="1.0" stroke-width="3.0" />
            <path d=" M 273.516, 115.221 277.056, 124.574 280.596, 133.926 282.940, 140.118 " fill="none" stroke="rgb(0, 0, 0)" stroke-linecap="butt" stroke-linejoin="round" stroke-opacity="1.0" stroke-width="3.0" />
            <path d=" M 296.479, 142.219 292.944, 132.865 289.408, 123.511 286.806, 116.629 285.168, 112.294 " fill="none" stroke="rgb(0, 0, 0)" stroke-linecap="butt" stroke-linejoin="round" stroke-opacity="1.0" stroke-width="3.0" />
            <path d=" M 334.414, 242.577 330.878, 233.223 327.343, 223.869 323.807, 214.515 320.271, 205.161 316.735, 195.807 314.191, 189.075 " fill="none" stroke="rgb(0, 0, 0)" stroke-linecap="butt" stroke-linejoin="round" stroke-opacity="1.0" stroke-width="3.0" />
            <path d=" M 359.883, 385.353 352.871, 378.223 350.040, 375.345 " fill="none" stroke="rgb(0, 0, 0)" stroke-linecap="butt" stroke-linejoin="round" stroke-opacity="1.0" stroke-width="3.0" />
            <path d=" M 367.363, 249.637 366.974, 253.553 " fill="none" stroke="rgb(0, 0, 0)" stroke-linecap="butt" stroke-linejoin="round" stroke-opacity="1.0" stroke-width="3.0" />
            <path d=" M 372.557, 197.342 371.569, 207.294 370.580, 217.245 369.592, 227.196 368.604, 237.147 368.286, 240.347 " fill="none" stroke="rgb(0, 0, 0)" stroke-linecap="butt" stroke-linejoin="round" stroke-opacity="1.0" stroke-width="3.0" />
            <path d=" M 378.440, 138.116 377.451, 148.067 376.794, 154.684 " fill="none" stroke="rgb(0, 0, 0)" stroke-linecap="butt" stroke-linejoin="round" stroke-opacity="1.0" stroke-width="3.0" />
            <path d=" M 355.111, 375.546 359.487, 384.537 359.883, 385.353 360.101, 385.800 364.477, 394.791 368.853, 403.783 373.229, 412.774 377.606, 421.766 381.982, 430.758 384.210, 435.335 " fill="none" stroke="rgb(0, 0, 0)" stroke-linecap="butt" stroke-linejoin="round" stroke-opacity="1.0" stroke-width="3.0" />
            <path d=" M 382.201, 155.523 383.169, 145.570 383.608, 141.054 " fill="none" stroke="rgb(0, 0, 0)" stroke-linecap="butt" stroke-linejoin="round" stroke-opacity="1.0" stroke-width="3.0" />
            <path d=" M 373.164, 248.421 374.132, 238.468 375.100, 228.515 376.068, 218.562 377.037, 208.609 378.005, 198.656 378.057, 198.121 " fill="none" stroke="rgb(0, 0, 0)" stroke-linecap="butt" stroke-linejoin="round" stroke-opacity="1.0" stroke-width="3.0" />
            <path d=" M 332.232, 191.631 337.412, 200.184 342.593, 208.738 347.773, 217.291 352.954, 225.845 358.134, 234.398 363.315, 242.952 367.363, 249.637 " fill="none" stroke="rgb(0, 0, 0)" stroke-linecap="butt" stroke-linejoin="round" stroke-opacity="1.0" stroke-width="3.0" />
            <path d=" M 286.806, 116.629 291.987, 125.182 297.167, 133.736 302.348, 142.289 302.910, 143.217 " fill="none" stroke="rgb(0, 0, 0)" stroke-linecap="butt" stroke-linejoin="round" stroke-opacity="1.0" stroke-width="3.0" />
            <path d=" M 310.302, 144.364 305.131, 135.805 299.960, 127.246 294.789, 118.686 290.347, 111.333 " fill="none" stroke="rgb(0, 0, 0)" stroke-linecap="butt" stroke-linejoin="round" stroke-opacity="1.0" stroke-width="3.0" />
            <path d=" M 377.657, 255.859 373.164, 248.421 368.286, 240.347 363.115, 231.788 357.944, 223.228 352.773, 214.669 347.603, 206.109 342.432, 197.550 339.476, 192.657 " fill="none" stroke="rgb(0, 0, 0)" stroke-linecap="butt" stroke-linejoin="round" stroke-opacity="1.0" stroke-width="3.0" />
            <path d=" M 394.711, 200.480 395.796, 210.421 396.882, 220.362 397.967, 230.303 399.052, 240.244 400.138, 250.185 401.223, 260.126 401.315, 260.966 " fill="none" stroke="rgb(0, 0, 0)" stroke-linecap="butt" stroke-linejoin="round" stroke-opacity="1.0" stroke-width="3.0" />
            <path d=" M 388.528, 143.850 389.613, 153.791 389.933, 156.723 " fill="none" stroke="rgb(0, 0, 0)" stroke-linecap="butt" stroke-linejoin="round" stroke-opacity="1.0" stroke-width="3.0" />
            <path d=" M 400.852, 158.418 399.954, 150.346 " fill="none" stroke="rgb(0, 0, 0)" stroke-linecap="butt" stroke-linejoin="round" stroke-opacity="1.0" stroke-width="3.0" />
            <path d=" M 412.529, 263.387 411.424, 253.449 410.318, 243.510 409.212, 233.571 408.107, 223.633 407.001, 213.694 405.896, 203.755 405.705, 202.038 " fill="none" stroke="rgb(0, 0, 0)" stroke-linecap="butt" stroke-linejoin="round" stroke-opacity="1.0" stroke-width="3.0" />
            <path d=" M 378.040, 387.276 388.006, 388.097 390.536, 388.305 " fill="none" stroke="rgb(0, 0, 0)" stroke-linecap="butt" stroke-linejoin="round" stroke-opacity="1.0" stroke-width="3.0" />
            <path d=" M 409.552, 395.154 415.738, 403.011 421.925, 410.868 426.757, 417.005 431.096, 422.515 431.462, 422.981 437.649, 430.838 443.835, 438.694 449.767, 446.228 451.464, 448.383 457.144, 455.597 " fill="none" stroke="rgb(0, 0, 0)" stroke-linecap="butt" stroke-linejoin="round" stroke-opacity="1.0" stroke-width="3.0" />
            <path d=" M 454.763, 389.988 449.174, 398.280 448.829, 398.791 443.917, 406.080 " fill="none" stroke="rgb(0, 0, 0)" stroke-linecap="butt" stroke-linejoin="round" stroke-opacity="1.0" stroke-width="3.0" />
            <path d=" M 433.227, 412.886 427.108, 404.976 420.990, 397.067 419.095, 394.617 " fill="none" stroke="rgb(0, 0, 0)" stroke-linecap="butt" stroke-linejoin="round" stroke-opacity="1.0" stroke-width="3.0" />
            <path d=" M 479.940, 445.140 471.220, 440.245 462.500, 435.350 460.169, 434.041 454.026, 430.593 " fill="none" stroke="rgb(0, 0, 0)" stroke-linecap="butt" stroke-linejoin="round" stroke-opacity="1.0" stroke-width="3.0" />
            <path d=" M 511.655, 129.811 509.687, 139.616 507.718, 149.420 506.236, 156.804 " fill="none" stroke="rgb(0, 0, 0)" stroke-linecap="butt" stroke-linejoin="round" stroke-opacity="1.0" stroke-width="3.0" />
            <path d=" M 516.244, 158.561 518.182, 148.750 520.119, 138.940 521.345, 132.734 " fill="none" stroke="rgb(0, 0, 0)" stroke-linecap="butt" stroke-linejoin="round" stroke-opacity="1.0" stroke-width="3.0" />
            <path d=" M 426.757, 417.005 421.194, 420.547 412.759, 425.917 405.653, 430.442 " fill="none" stroke="rgb(0, 0, 0)" stroke-linecap="butt" stroke-linejoin="round" stroke-opacity="1.0" stroke-width="3.0" />
            <path d=" M 472.889, 387.635 464.453, 393.005 456.691, 397.947 452.121, 400.857 443.917, 406.080 435.482, 411.450 433.227, 412.886 " fill="none" stroke="rgb(0, 0, 0)" stroke-linecap="butt" stroke-linejoin="round" stroke-opacity="1.0" stroke-width="3.0" />
            <path d=" M 517.325, 381.867 515.516, 384.929 514.220, 387.122 509.133, 395.731 504.046, 404.341 498.959, 412.950 498.212, 414.215 493.125, 422.825 488.038, 431.434 482.951, 440.044 479.940, 445.140 474.853, 453.749 470.420, 461.250 " fill="none" stroke="rgb(0, 0, 0)" stroke-linecap="butt" stroke-linejoin="round" stroke-opacity="1.0" stroke-width="3.0" />
            <path d=" M 437.947, 418.987 446.461, 413.742 454.976, 408.498 463.490, 403.254 472.005, 398.010 480.520, 392.765 489.034, 387.521 493.111, 385.010 " fill="none" stroke="rgb(0, 0, 0)" stroke-linecap="butt" stroke-linejoin="round" stroke-opacity="1.0" stroke-width="3.0" />
            <path d=" M 531.100, 275.544 531.782, 285.520 532.463, 295.497 533.145, 305.474 533.505, 310.750 " fill="none" stroke="rgb(0, 0, 0)" stroke-linecap="butt" stroke-linejoin="round" stroke-opacity="1.0" stroke-width="3.0" />
            <path d=" M 528.787, 241.683 529.469, 251.660 530.150, 261.636 530.621, 268.525 " fill="none" stroke="rgb(0, 0, 0)" stroke-linecap="butt" stroke-linejoin="round" stroke-opacity="1.0" stroke-width="3.0" />
            <path d=" M 521.336, 132.601 521.345, 132.734 522.027, 142.711 522.708, 152.687 523.205, 159.959 " fill="none" stroke="rgb(0, 0, 0)" stroke-linecap="butt" stroke-linejoin="round" stroke-opacity="1.0" stroke-width="3.0" />
            <path d=" M 528.445, 161.011 527.746, 151.036 527.048, 141.060 526.604, 134.723 " fill="none" stroke="rgb(0, 0, 0)" stroke-linecap="butt" stroke-linejoin="round" stroke-opacity="1.0" stroke-width="3.0" />
            <path d=" M 535.611, 263.386 534.913, 253.410 534.215, 243.435 534.161, 242.675 " fill="none" stroke="rgb(0, 0, 0)" stroke-linecap="butt" stroke-linejoin="round" stroke-opacity="1.0" stroke-width="3.0" />
            <path d=" M 539.117, 313.467 538.419, 303.491 537.721, 293.516 537.022, 283.540 536.324, 273.565 536.101, 270.384 " fill="none" stroke="rgb(0, 0, 0)" stroke-linecap="butt" stroke-linejoin="round" stroke-opacity="1.0" stroke-width="3.0" />
            <path d=" M 511.480, 424.016 519.524, 429.957 527.567, 435.899 535.611, 441.840 543.655, 447.781 547.693, 450.764 " fill="none" stroke="rgb(0, 0, 0)" stroke-linecap="butt" stroke-linejoin="round" stroke-opacity="1.0" stroke-width="3.0" />
            <path d=" M 515.516, 384.929 514.974, 384.547 " fill="none" stroke="rgb(0, 0, 0)" stroke-linecap="butt" stroke-linejoin="round" stroke-opacity="1.0" stroke-width="3.0" />
            <path d=" M 530.621, 268.525 523.654, 275.699 516.688, 282.874 509.721, 290.048 503.652, 296.298 " fill="none" stroke="rgb(0, 0, 0)" stroke-linecap="butt" stroke-linejoin="round" stroke-opacity="1.0" stroke-width="3.0" />
            <path d=" M 552.677, 245.812 545.710, 252.986 538.744, 260.160 535.611, 263.386 " fill="none" stroke="rgb(0, 0, 0)" stroke-linecap="butt" stroke-linejoin="round" stroke-opacity="1.0" stroke-width="3.0" />
            <path d=" M 629.589, 166.609 622.623, 173.783 615.656, 180.957 608.690, 188.131 606.543, 190.341 " fill="none" stroke="rgb(0, 0, 0)" stroke-linecap="butt" stroke-linejoin="round" stroke-opacity="1.0" stroke-width="3.0" />
            <path d=" M 636.644, 398.307 635.047, 395.027 634.366, 393.628 " fill="none" stroke="rgb(0, 0, 0)" stroke-linecap="butt" stroke-linejoin="round" stroke-opacity="1.0" stroke-width="3.0" />
            <path d=" M 612.744, 191.304 619.704, 184.123 626.663, 176.942 633.623, 169.761 635.377, 167.951 " fill="none" stroke="rgb(0, 0, 0)" stroke-linecap="butt" stroke-linejoin="round" stroke-opacity="1.0" stroke-width="3.0" />
            <path d=" M 536.101, 270.384 543.061, 263.203 550.020, 256.022 556.980, 248.841 559.401, 246.343 " fill="none" stroke="rgb(0, 0, 0)" stroke-linecap="butt" stroke-linejoin="round" stroke-opacity="1.0" stroke-width="3.0" />
            <path d=" M 508.643, 298.715 515.603, 291.534 522.562, 284.353 529.522, 277.172 531.100, 275.544 " fill="none" stroke="rgb(0, 0, 0)" stroke-linecap="butt" stroke-linejoin="round" stroke-opacity="1.0" stroke-width="3.0" />
            <path d=" M 585.798, 255.995 580.849, 264.684 575.901, 273.374 570.952, 282.064 566.003, 290.753 561.055, 299.443 556.106, 308.133 551.157, 316.822 550.412, 318.130 " fill="none" stroke="rgb(0, 0, 0)" stroke-linecap="butt" stroke-linejoin="round" stroke-opacity="1.0" stroke-width="3.0" />
            <path d=" M 635.873, 168.066 630.924, 176.756 625.975, 185.446 621.836, 192.715 " fill="none" stroke="rgb(0, 0, 0)" stroke-linecap="butt" stroke-linejoin="round" stroke-opacity="1.0" stroke-width="3.0" />
            <path d=" M 633.112, 194.465 638.037, 185.762 642.963, 177.059 645.806, 172.035 " fill="none" stroke="rgb(0, 0, 0)" stroke-linecap="butt" stroke-linejoin="round" stroke-opacity="1.0" stroke-width="3.0" />
            <path d=" M 562.007, 320.098 566.932, 311.395 571.858, 302.693 576.784, 293.990 581.709, 285.287 586.635, 276.584 591.560, 267.881 595.247, 261.366 " fill="none" stroke="rgb(0, 0, 0)" stroke-linecap="butt" stroke-linejoin="round" stroke-opacity="1.0" stroke-width="3.0" />
            <path d=" M 689.786, 398.256 680.812, 402.667 671.837, 407.078 662.862, 411.488 653.888, 415.899 644.913, 420.310 638.818, 423.305 629.844, 427.716 620.869, 432.127 612.856, 436.065 612.045, 436.464 603.070, 440.875 594.095, 445.285 585.121, 449.696 576.146, 454.107 567.171, 458.518 564.350, 459.904 " fill="none" stroke="rgb(0, 0, 0)" stroke-linecap="butt" stroke-linejoin="round" stroke-opacity="1.0" stroke-width="3.0" />
            <path d=" M 663.679, 300.268 656.510, 307.240 649.342, 314.212 642.173, 321.185 635.004, 328.157 631.213, 331.844 " fill="none" stroke="rgb(0, 0, 0)" stroke-linecap="butt" stroke-linejoin="round" stroke-opacity="1.0" stroke-width="3.0" />
            <path d=" M 719.045, 246.419 711.877, 253.391 704.708, 260.364 699.425, 265.502 " fill="none" stroke="rgb(0, 0, 0)" stroke-linecap="butt" stroke-linejoin="round" stroke-opacity="1.0" stroke-width="3.0" />
            <path d=" M 687.611, 313.873 681.652, 321.904 675.693, 329.934 671.153, 336.052 " fill="none" stroke="rgb(0, 0, 0)" stroke-linecap="butt" stroke-linejoin="round" stroke-opacity="1.0" stroke-width="3.0" />
            <path d=" M 735.893, 248.806 729.934, 256.836 723.975, 264.867 718.016, 272.897 716.709, 274.659 " fill="none" stroke="rgb(0, 0, 0)" stroke-linecap="butt" stroke-linejoin="round" stroke-opacity="1.0" stroke-width="3.0" />
            <path d=" M 709.855, 271.028 717.020, 264.052 724.185, 257.076 731.350, 250.100 733.087, 248.408 " fill="none" stroke="rgb(0, 0, 0)" stroke-linecap="butt" stroke-linejoin="round" stroke-opacity="1.0" stroke-width="3.0" />
            <path d=" M 644.991, 334.183 652.156, 327.207 659.321, 320.231 666.485, 313.255 673.872, 306.063 " fill="none" stroke="rgb(0, 0, 0)" stroke-linecap="butt" stroke-linejoin="round" stroke-opacity="1.0" stroke-width="3.0" />
            <path d=" M 722.001, 277.462 727.948, 269.423 733.894, 261.383 739.841, 253.343 742.504, 249.742 " fill="none" stroke="rgb(0, 0, 0)" stroke-linecap="butt" stroke-linejoin="round" stroke-opacity="1.0" stroke-width="3.0" />
            <path d=" M 678.458, 336.334 684.405, 328.294 690.351, 320.254 692.863, 316.859 " fill="none" stroke="rgb(0, 0, 0)" stroke-linecap="butt" stroke-linejoin="round" stroke-opacity="1.0" stroke-width="3.0" />
            <path d=" M 635.047, 395.027 635.903, 393.869 " fill="none" stroke="rgb(0, 0, 0)" stroke-linecap="butt" stroke-linejoin="round" stroke-opacity="1.0" stroke-width="3.0" />
            <path d=" M 710.423, 326.841 701.234, 330.787 692.045, 334.733 687.505, 336.682 " fill="none" stroke="rgb(0, 0, 0)" stroke-linecap="butt" stroke-linejoin="round" stroke-opacity="1.0" stroke-width="3.0" />
            <path d=" M 815.879, 281.557 806.690, 285.503 797.502, 289.449 788.313, 293.394 779.124, 297.340 769.936, 301.286 768.297, 301.989 " fill="none" stroke="rgb(0, 0, 0)" stroke-linecap="butt" stroke-linejoin="round" stroke-opacity="1.0" stroke-width="3.0" />
            <path d=" M 775.254, 305.675 784.452, 301.752 793.651, 297.829 802.849, 293.906 806.828, 292.210 " fill="none" stroke="rgb(0, 0, 0)" stroke-linecap="butt" stroke-linejoin="round" stroke-opacity="1.0" stroke-width="3.0" />
            <path d=" M 701.298, 337.214 710.496, 333.291 716.937, 330.544 " fill="none" stroke="rgb(0, 0, 0)" stroke-linecap="butt" stroke-linejoin="round" stroke-opacity="1.0" stroke-width="3.0" />
            <path d=" M 642.181, 394.855 636.644, 398.307 " fill="none" stroke="rgb(0, 0, 0)" stroke-linecap="butt" stroke-linejoin="round" stroke-opacity="1.0" stroke-width="3.0" />
            <path d=" M 817.626, 285.478 809.140, 290.768 806.828, 292.210 798.342, 297.500 789.856, 302.791 781.370, 308.081 780.646, 308.532 " fill="none" stroke="rgb(0, 0, 0)" stroke-linecap="butt" stroke-linejoin="round" stroke-opacity="1.0" stroke-width="3.0" />
            <path d=" M 803.295, 309.667 811.796, 304.401 820.297, 299.135 822.971, 297.478 " fill="none" stroke="rgb(0, 0, 0)" stroke-linecap="butt" stroke-linejoin="round" stroke-opacity="1.0" stroke-width="3.0" />
            <path d=" M 638.783, 411.582 647.284, 406.316 655.785, 401.050 661.012, 397.812 " fill="none" stroke="rgb(0, 0, 0)" stroke-linecap="butt" stroke-linejoin="round" stroke-opacity="1.0" stroke-width="3.0" />
            <path d=" M 654.047, 433.099 663.191, 429.052 672.336, 425.005 681.480, 420.958 690.625, 416.911 699.770, 412.865 708.914, 408.818 718.059, 404.771 727.203, 400.724 732.058, 398.576 " fill="none" stroke="rgb(0, 0, 0)" stroke-linecap="butt" stroke-linejoin="round" stroke-opacity="1.0" stroke-width="3.0" />
        </g>
    </g>
</svg>
